<svg width="47" height="50" viewBox="0 0 47 50" fill="none" xmlns="http://www.w3.org/2000/svg">
<mask id="mask0_842_836" style="mask-type:luminance" maskUnits="userSpaceOnUse" x="15" y="0" width="32" height="49">
<path d="M15.7246 0.432861H46.2708V48.8778H15.7246V0.432861Z" fill="white"/>
</mask>
<g mask="url(#mask0_842_836)">
<path fill-rule="evenodd" clip-rule="evenodd" d="M31.9057 12.7042H34.2052V14.7934H31.9057V12.7042ZM31.9057 15.9451H34.2052V18.0343H31.9057V15.9451ZM31.9057 19.1828H34.2052V21.2721H31.9057V19.1828ZM31.9057 22.4237H34.2052V24.5129H31.9057V22.4237ZM31.9057 25.6646H34.2052V27.7538H31.9057V25.6646ZM31.9057 28.9055H34.2052V30.9947H31.9057V28.9055ZM31.9057 9.46329H34.2052V11.5526H31.9057V9.46329ZM40.2085 10.0186L30.2226 5.96439V36.6757L39.3358 43.5823V16.675L40.2085 17.2729V10.0186ZM34.4597 0.432861C31.6096 0.432861 28.7612 0.432861 25.9128 0.432861V11.7885L26.7838 11.3056V34.0704L29.3534 36.0165V4.74513L34.4615 6.82024V0.432861H34.4597ZM24.1362 13.7048L25.9128 12.7183V33.4112L24.1362 32.0661V13.7048ZM17.3434 13.1242H19.3554V14.9523H17.3434V13.1242ZM17.3434 15.9592H19.3554V17.7873H17.3434V15.9592ZM17.3434 18.7973H19.3554V20.6255H17.3434V18.7973ZM17.3434 21.6339H19.3554V23.462H17.3434V21.6339ZM17.3434 24.4689H19.3554V26.297H17.3434V24.4689ZM17.3434 10.2877H19.3554V12.1158H17.3434V10.2877ZM15.9668 8.24874L23.267 4.19449V31.4053L15.9703 25.8722V8.24874H15.9668ZM46.1078 22.3198L40.2085 18.2656V44.2414L46.1078 48.711V22.3198Z" fill="#5F259F"/>
</g>
<path fill-rule="evenodd" clip-rule="evenodd" d="M1.02783 31.0375L14.7018 27.1311L0.749023 37.7049L1.02783 31.0375Z" fill="#001E60"/>
<path fill-rule="evenodd" clip-rule="evenodd" d="M0.751287 38.3007L15.9698 26.7688L45.5654 49.197C42.433 49.197 39.3024 49.197 36.1683 49.197V46.093L15.9664 30.7696L3.39017 40.3003C1.26083 40.3003 5.36555 39.9283 2.76304 39.9283L0.751287 38.3007C3.3538 38.3007 -1.85123 38.3007 0.751287 38.3007Z" fill="#5F259F"/>
<path fill-rule="evenodd" clip-rule="evenodd" d="M15.9657 31.6602L34.985 46.0931H33.0924L15.9657 33.0918L5.75477 40.8322L4.80762 40.1148L15.9657 31.6602Z" fill="#001E60"/>
<path fill-rule="evenodd" clip-rule="evenodd" d="M15.5287 43.2075H13.4041V41.2787H15.5287V43.2075ZM18.3979 41.2787V43.2075H16.275V41.2787H18.3979ZM16.275 38.6687H18.3979V40.5975H16.275V38.6687ZM13.4023 38.6687H15.5252V40.5975H13.4023V38.6687Z" fill="#001E60"/>
</svg>
