<svg width="89" height="866" viewBox="0 0 89 866" fill="none" xmlns="http://www.w3.org/2000/svg">
<rect width="88" height="866" fill="#F9FAFB"/>
<g opacity="0.4">
<path d="M42.7503 146.583V133.417C42.7503 132.167 42.217 131.667 40.892 131.667H37.5253C36.2003 131.667 35.667 132.167 35.667 133.417V146.583C35.667 147.833 36.2003 148.333 37.5253 148.333H40.892C42.217 148.333 42.7503 147.833 42.7503 146.583Z" stroke="#100A55" strokeWidth="2" strokeLinecap="round"strokeLinejoin="round"/>
<path d="M52.3333 137.1V133.317C52.3333 132.142 51.8 131.667 50.475 131.667H47.1083C45.7833 131.667 45.25 132.142 45.25 133.317V137.092C45.25 138.275 45.7833 138.742 47.1083 138.742H50.475C51.8 138.75 52.3333 138.275 52.3333 137.1Z" stroke="#100A55" strokeWidth="2" strokeLinecap="round"strokeLinejoin="round"/>
<path d="M52.3333 146.475V143.108C52.3333 141.783 51.8 141.25 50.475 141.25H47.1083C45.7833 141.25 45.25 141.783 45.25 143.108V146.475C45.25 147.8 45.7833 148.333 47.1083 148.333H50.475C51.8 148.333 52.3333 147.8 52.3333 146.475Z" stroke="#100A55" strokeWidth="2" strokeLinecap="round"strokeLinejoin="round"/>
</g>
<rect x="24" y="176" width="40" height="40" rx="8" fill="#F0EFFB"/>
<path d="M50.0086 191.3C49.1419 189.55 47.4669 188.258 45.5253 187.833C43.4919 187.383 41.4086 187.867 39.8169 189.15C38.2169 190.425 37.3086 192.333 37.3086 194.375C37.3086 196.533 38.6003 198.792 40.5503 200.1V200.792C40.5419 201.025 40.5336 201.383 40.8169 201.675C41.1086 201.975 41.5419 202.008 41.8836 202.008H46.1586C46.6086 202.008 46.9503 201.883 47.1836 201.65C47.5003 201.325 47.4919 200.908 47.4836 200.683V200.1C50.0669 198.358 51.6919 194.683 50.0086 191.3Z" fill="#5F259F"/>
<path d="M46.717 204.333C46.667 204.333 46.6086 204.325 46.5586 204.308C44.8836 203.833 43.1253 203.833 41.4503 204.308C41.142 204.392 40.817 204.217 40.7336 203.908C40.642 203.6 40.8253 203.275 41.1336 203.192C43.017 202.658 45.0003 202.658 46.8836 203.192C47.192 203.283 47.3753 203.6 47.2836 203.908C47.2003 204.167 46.967 204.333 46.717 204.333Z" fill="#5F259F"/>
<g opacity="0.4" clipPath="url(#clip0_283_19964)">
<path d="M51.2607 248.568L45.7055 244.252C45.218 243.873 44.618 243.667 44.0003 243.667C43.3827 243.667 42.7826 243.873 42.2951 244.252L36.7389 248.568C36.405 248.828 36.1348 249.16 35.949 249.54C35.7633 249.919 35.6668 250.336 35.667 250.759V258.252C35.667 258.804 35.8865 259.334 36.2772 259.724C36.6679 260.114 37.1978 260.334 37.7503 260.334H50.2503C50.8029 260.334 51.3328 260.114 51.7235 259.724C52.1142 259.334 52.3337 258.804 52.3337 258.252V250.759C52.3337 249.903 51.9378 249.094 51.2607 248.568Z" stroke="#100A55" strokeWidth="2" strokeLinecap="round"strokeLinejoin="round"/>
</g>
<g opacity="0.4">
<path d="M49.0004 303.967C48.9504 303.958 48.8921 303.958 48.8421 303.967C47.6921 303.925 46.7754 302.983 46.7754 301.817C46.7754 300.625 47.7337 299.667 48.9254 299.667C50.1171 299.667 51.0754 300.633 51.0754 301.817C51.0671 302.983 50.1504 303.925 49.0004 303.967Z" stroke="#100A55" strokeWidth="2" strokeLinecap="round"strokeLinejoin="round"/>
<path d="M48.1422 310.033C49.2839 310.225 50.5422 310.025 51.4255 309.433C52.6005 308.65 52.6005 307.367 51.4255 306.583C50.5339 305.992 49.2589 305.792 48.1172 305.992" stroke="#100A55" strokeWidth="2" strokeLinecap="round"strokeLinejoin="round"/>
<path d="M38.9754 303.967C39.0254 303.958 39.0837 303.958 39.1337 303.967C40.2837 303.925 41.2004 302.983 41.2004 301.817C41.2004 300.625 40.2421 299.667 39.0504 299.667C37.8587 299.667 36.9004 300.633 36.9004 301.817C36.9087 302.983 37.8254 303.925 38.9754 303.967Z" stroke="#100A55" strokeWidth="2" strokeLinecap="round"strokeLinejoin="round"/>
<path d="M39.8335 310.033C38.6919 310.225 37.4335 310.025 36.5502 309.433C35.3752 308.65 35.3752 307.367 36.5502 306.583C37.4419 305.992 38.7169 305.792 39.8585 305.992" stroke="#100A55" strokeWidth="2" strokeLinecap="round"strokeLinejoin="round"/>
<path d="M43.9994 310.192C43.9494 310.183 43.8911 310.183 43.8411 310.192C42.6911 310.15 41.7744 309.208 41.7744 308.042C41.7744 306.85 42.7327 305.892 43.9244 305.892C45.1161 305.892 46.0744 306.858 46.0744 308.042C46.0661 309.208 45.1494 310.158 43.9994 310.192Z" stroke="#100A55" strokeWidth="2" strokeLinecap="round"strokeLinejoin="round"/>
<path d="M41.5746 312.817C40.3996 313.6 40.3996 314.883 41.5746 315.667C42.9079 316.558 45.0913 316.558 46.4246 315.667C47.5996 314.883 47.5996 313.6 46.4246 312.817C45.0996 311.933 42.9079 311.933 41.5746 312.817Z" stroke="#100A55" strokeWidth="2" strokeLinecap="round"strokeLinejoin="round"/>
</g>
<g opacity="0.4">
<path d="M41.917 365.458C41.917 366.267 42.542 366.917 43.3087 366.917H44.8753C45.542 366.917 46.0837 366.35 46.0837 365.642C46.0837 364.883 45.7503 364.608 45.2587 364.433L42.7503 363.558C42.2587 363.383 41.9253 363.117 41.9253 362.35C41.9253 361.65 42.467 361.075 43.1337 361.075H44.7003C45.467 361.075 46.092 361.725 46.092 362.533" stroke="#100A55" strokeWidth="2" strokeLinecap="round"strokeLinejoin="round"/>
<path d="M44 360.25V367.75" stroke="#100A55" strokeWidth="2" strokeLinecap="round"strokeLinejoin="round"/>
<path d="M52.3337 364C52.3337 368.6 48.6003 372.333 44.0003 372.333C39.4003 372.333 35.667 368.6 35.667 364C35.667 359.4 39.4003 355.667 44.0003 355.667" stroke="#100A55" strokeWidth="2" strokeLinecap="round"strokeLinejoin="round"/>
<path d="M48.167 356.5V359.833H51.5003" stroke="#100A55" strokeWidth="2" strokeLinecap="round"strokeLinejoin="round"/>
<path d="M52.3337 355.667L48.167 359.833" stroke="#100A55" strokeWidth="2" strokeLinecap="round"strokeLinejoin="round"/>
</g>
<g opacity="0.4">
<path d="M48.167 427.083H39.8337C37.3337 427.083 35.667 425.833 35.667 422.917V417.083C35.667 414.167 37.3337 412.917 39.8337 412.917H48.167C50.667 412.917 52.3337 414.167 52.3337 417.083V422.917C52.3337 425.833 50.667 427.083 48.167 427.083Z" stroke="#100A55" strokeWidth="2" strokeMiterlimit="10" strokeLinecap="round"strokeLinejoin="round"/>
<path d="M48.1663 417.5L45.558 419.583C44.6997 420.267 43.2913 420.267 42.433 419.583L39.833 417.5" stroke="#100A55" strokeWidth="2" strokeMiterlimit="10" strokeLinecap="round"strokeLinejoin="round"/>
</g>
<g opacity="0.4" clipPath="url(#clip1_283_19964)">
<path d="M44.0003 766.333C48.5837 766.333 52.3337 762.583 52.3337 758C52.3337 753.417 48.5837 749.667 44.0003 749.667C39.417 749.667 35.667 753.417 35.667 758C35.667 762.583 39.417 766.333 44.0003 766.333Z" stroke="#100A55" strokeWidth="2" strokeLinecap="round"strokeLinejoin="round"/>
<path d="M41.5 755.707C41.5 755.21 41.7303 754.734 42.1403 754.382C42.5503 754.031 43.1064 753.833 43.6862 753.833H44.3108C44.8906 753.833 45.4467 754.031 45.8567 754.382C46.2667 754.734 46.497 755.21 46.497 755.707C46.52 756.113 46.4106 756.515 46.1853 756.853C45.96 757.191 45.6309 757.446 45.2477 757.581C44.8646 757.761 44.5355 758.102 44.3102 758.552C44.0849 759.003 43.9755 758.914 43.9985 759.455" stroke="#000929" strokeWidth="2" strokeLinecap="round"strokeLinejoin="round"/>
<path d="M43.998 762.578V762.584" stroke="#000929" strokeWidth="2" strokeLinecap="round"strokeLinejoin="round"/>
</g>
<g opacity="0.4">
<path d="M44 816.5C45.3807 816.5 46.5 815.381 46.5 814C46.5 812.619 45.3807 811.5 44 811.5C42.6193 811.5 41.5 812.619 41.5 814C41.5 815.381 42.6193 816.5 44 816.5Z" stroke="#100A55" strokeWidth="2" strokeMiterlimit="10" strokeLinecap="round"strokeLinejoin="round"/>
<path d="M35.667 814.733V813.267C35.667 812.4 36.3753 811.683 37.2503 811.683C38.7587 811.683 39.3753 810.617 38.617 809.308C38.1837 808.558 38.442 807.583 39.2003 807.15L40.642 806.325C41.3003 805.933 42.1503 806.167 42.542 806.825L42.6337 806.983C43.3837 808.292 44.617 808.292 45.3753 806.983L45.467 806.825C45.8587 806.167 46.7087 805.933 47.367 806.325L48.8087 807.15C49.567 807.583 49.8253 808.558 49.392 809.308C48.6337 810.617 49.2503 811.683 50.7587 811.683C51.6253 811.683 52.342 812.392 52.342 813.267V814.733C52.342 815.6 51.6337 816.317 50.7587 816.317C49.2503 816.317 48.6337 817.383 49.392 818.692C49.8253 819.45 49.567 820.417 48.8087 820.85L47.367 821.675C46.7087 822.067 45.8587 821.833 45.467 821.175L45.3753 821.017C44.6253 819.708 43.392 819.708 42.6337 821.017L42.542 821.175C42.1503 821.833 41.3003 822.067 40.642 821.675L39.2003 820.85C38.442 820.417 38.1837 819.442 38.617 818.692C39.3753 817.383 38.7587 816.317 37.2503 816.317C36.3753 816.317 35.667 815.6 35.667 814.733Z" stroke="#100A55" strokeWidth="2" strokeMiterlimit="10" strokeLinecap="round"strokeLinejoin="round"/>
</g>
<line x1="88.5" y1="2.18557e-08" x2="88.5" y2="866" stroke="#E0DEF7"/>
<mask id="mask0_283_19964" style="mask-type:luminance" maskUnits="userSpaceOnUse" x="31" y="23" width="32" height="49">
<path d="M31.7246 23.4329H62.2708V71.8778H31.7246V23.4329Z" fill="white"/>
</mask>
<g mask="url(#mask0_283_19964)">
<path fillRule="evenodd" clipRule="evenodd" d="M47.9057 35.7042H50.2052V37.7934H47.9057V35.7042ZM47.9057 38.9451H50.2052V41.0343H47.9057V38.9451ZM47.9057 42.1828H50.2052V44.2721H47.9057V42.1828ZM47.9057 45.4237H50.2052V47.5129H47.9057V45.4237ZM47.9057 48.6646H50.2052V50.7538H47.9057V48.6646ZM47.9057 51.9055H50.2052V53.9947H47.9057V51.9055ZM47.9057 32.4633H50.2052V34.5526H47.9057V32.4633ZM56.2085 33.0186L46.2226 28.9644V59.6757L55.3358 66.5823V39.675L56.2085 40.2729V33.0186ZM50.4597 23.4329C47.6096 23.4329 44.7612 23.4329 41.9128 23.4329V34.7885L42.7838 34.3056V57.0704L45.3534 59.0165V27.7451L50.4615 29.8202V23.4329H50.4597ZM40.1362 36.7048L41.9128 35.7183V56.4112L40.1362 55.0661V36.7048ZM33.3434 36.1242H35.3554V37.9523H33.3434V36.1242ZM33.3434 38.9592H35.3554V40.7873H33.3434V38.9592ZM33.3434 41.7973H35.3554V43.6255H33.3434V41.7973ZM33.3434 44.6339H35.3554V46.462H33.3434V44.6339ZM33.3434 47.4689H35.3554V49.297H33.3434V47.4689ZM33.3434 33.2877H35.3554V35.1158H33.3434V33.2877ZM31.9668 31.2487L39.267 27.1945V54.4053L31.9703 48.8722V31.2487H31.9668ZM62.1078 45.3198L56.2085 41.2656V67.2414L62.1078 71.711V45.3198Z" fill="#5F259F"/>
</g>
<path fillRule="evenodd" clipRule="evenodd" d="M17.0278 54.0375L30.7018 50.1311L16.749 60.7049L17.0278 54.0375Z" fill="#001E60"/>
<path fillRule="evenodd" clipRule="evenodd" d="M16.7513 61.3007L31.9698 49.7688L61.5654 72.197C58.433 72.197 55.3024 72.197 52.1683 72.197V69.093L31.9664 53.7696L19.3902 63.3003C17.2608 63.3003 21.3656 62.9283 18.763 62.9283L16.7513 61.3007C19.3538 61.3007 14.1488 61.3007 16.7513 61.3007Z" fill="#5F259F"/>
<path fillRule="evenodd" clipRule="evenodd" d="M31.9657 54.6602L50.985 69.0931H49.0924L31.9657 56.0918L21.7548 63.8322L20.8076 63.1148L31.9657 54.6602Z" fill="#001E60"/>
<path fillRule="evenodd" clipRule="evenodd" d="M31.5287 66.2075H29.4041V64.2787H31.5287V66.2075ZM34.3979 64.2787V66.2075H32.275V64.2787H34.3979ZM32.275 61.6687H34.3979V63.5975H32.275V61.6687ZM29.4023 61.6687H31.5252V63.5975H29.4023V61.6687Z" fill="#001E60"/>
<defs>
<clipPath id="clip0_283_19964">
<rect width="20" height="20" fill="white" transform="translate(34 242)"/>
</clipPath>
<clipPath id="clip1_283_19964">
<rect width="20" height="20" fill="white" transform="translate(34 748)"/>
</clipPath>
</defs>
</svg>
