<svg width="137" height="108" viewBox="0 0 137 108" fill="none" xmlns="http://www.w3.org/2000/svg">
<g id="Group 13969">
<g id="Group">
<g id="Group_2">
<g id="Group_3">
<path id="Vector" d="M27.2129 98.7844H30.6718V86.6875H27.2129V98.7844Z" fill="#001E60"/>
</g>
</g>
</g>
<g id="Group_4">
<g id="Group_5">
<g id="Group_6">
<path id="Vector_2" d="M41.6613 96.1031V86.6875H38.2024V98.7844H45.98V96.1031H41.6613Z" fill="#001E60"/>
</g>
</g>
</g>
<g id="Group_7">
<g id="Group_8">
<g id="Group_9">
<path id="Vector_3" d="M60.6998 89.3688V86.6875H52.2913V98.7844H60.6998V96.1031H55.7501V94.0666H59.9321V91.4053H55.7501V89.3688H60.6998Z" fill="#001E60"/>
</g>
</g>
</g>
<g id="Group_10">
<g id="Group_11">
<g id="Group_12">
<path id="Vector_4" d="M68.0283 95.5579H74.357V93.6235H68.0283V95.5579Z" fill="#001E60"/>
</g>
</g>
</g>
<g id="Group_13">
<g id="Group_14">
<g id="Group_15">
<path id="Vector_5" d="M93.9604 86.6875L89.9376 94.3903L85.9372 86.6875H82.1824V98.7844H85.6412V92.2716L89.0108 98.7844H90.8645L94.2312 92.314V98.7844H97.6901V86.6875H93.9604Z" fill="#001E60"/>
</g>
</g>
</g>
<g id="Group_16">
<g id="Group_17">
<g id="Group_18">
<path id="Vector_6" d="M105.244 98.7844H108.703V86.6875H105.244V98.7844Z" fill="#001E60"/>
</g>
</g>
</g>
<g id="Clip path group">
<mask id="mask0_280_3219" style="mask-type:luminance" maskUnits="userSpaceOnUse" x="86" y="0" width="51" height="77">
<g id="1fefdaac8d">
<path id="Vector_7" d="M86.8962 0H136.144V76.6617H86.8962V0Z" fill="white"/>
</g>
</mask>
<g mask="url(#mask0_280_3219)">
<g id="Group_19">
<path id="Vector_8" fillRule="evenodd" clipRule="evenodd" d="M112.984 19.4188H116.692V22.7249H112.984V19.4188ZM112.984 24.5473H116.692V27.8535H112.984V24.5473ZM112.984 29.6709H116.692V32.977H112.984V29.6709ZM112.984 34.7994H116.692V38.1056H112.984V34.7994ZM112.984 39.9279H116.692V43.2341H112.984V39.9279ZM112.984 45.0565H116.692V48.3626H112.984V45.0565ZM112.984 14.2902H116.692V17.5964H112.984V14.2902ZM126.37 15.169L110.271 8.75338V57.3525L124.963 68.2818V25.7025L126.37 26.6485V15.169ZM117.102 0C112.507 0 107.915 0 103.322 0V17.9698L104.727 17.2055V53.2298L108.869 56.3094V6.82395L117.105 10.1077V0H117.102ZM100.458 21.0021L103.322 19.4412V52.1866L100.458 50.0581V21.0021ZM89.5065 20.0835H92.7504V22.9764H89.5065V20.0835ZM89.5065 24.5697H92.7504V27.4626H89.5065V24.5697ZM89.5065 29.0609H92.7504V31.9538H89.5065V29.0609ZM89.5065 33.5496H92.7504V36.4425H89.5065V33.5496ZM89.5065 38.0359H92.7504V40.9287H89.5065V38.0359ZM89.5065 15.5948H92.7504V18.4876H89.5065V15.5948ZM87.2871 12.3682L99.0568 5.95259V49.0124L87.2927 40.2566V12.3682H87.2871ZM135.882 34.6351L126.37 28.2194V69.3249L135.882 76.3978V34.6351Z" fill="#5F259F"/>
</g>
</g>
</g>
<path id="Vector_9" fillRule="evenodd" clipRule="evenodd" d="M44.5996 45.4775L63.2005 48.4302L85.2463 42.2485L62.751 58.981L44.5996 45.4775Z" fill="#001E60"/>
<g id="Clip path group_2">
<mask id="mask1_280_3219" style="mask-type:luminance" maskUnits="userSpaceOnUse" x="0" y="41" width="136" height="36">
<g id="41410bae1f">
<path id="Vector_10" d="M0 41.6084H135.494V76.958H0V41.6084Z" fill="white"/>
</g>
</mask>
<g mask="url(#mask1_280_3219)">
<g id="Group_20">
<path id="Vector_11" fillRule="evenodd" clipRule="evenodd" d="M42.986 45.2209L62.7566 59.9244L87.2925 41.6758L135.008 77.1673C129.958 77.1673 124.91 77.1673 119.857 77.1673V72.2553L87.287 48.0068L67.0111 63.0887L85.933 77.1673C81.7371 77.1673 77.544 77.1673 73.3482 77.1673V74.1399L42.9804 51.552L12.6127 74.1399V77.1673C8.41679 77.1673 4.22371 77.1673 0.027832 77.1673L42.986 45.2209Z" fill="#5F259F"/>
</g>
</g>
</g>
<path id="Vector_12" fillRule="evenodd" clipRule="evenodd" d="M42.9861 52.9585L71.4583 74.1399H68.407L42.9861 55.229L17.5568 74.1399H14.5083L42.9861 52.9585Z" fill="#001E60"/>
<path id="Vector_13" fillRule="evenodd" clipRule="evenodd" d="M42.1373 76.6468H37.3105V72.3473H42.1318V76.6468H42.1373ZM48.6531 72.3473V76.6468H43.8319V72.3473H48.6531ZM43.8319 66.5366H48.6531V70.8336H43.8319V66.5366ZM37.3105 66.5366H42.1318V70.8336H37.3105V66.5366Z" fill="#001E60"/>
<path id="Vector_14" fillRule="evenodd" clipRule="evenodd" d="M87.2871 49.416L117.951 72.2555H114.899L87.2871 51.6815L70.8246 63.9303L69.2976 62.795L87.2871 49.416Z" fill="#001E60"/>
<path id="Vector_15" fillRule="evenodd" clipRule="evenodd" d="M86.5808 67.6893H83.1554V64.6371H86.5808V67.6893ZM91.2065 64.6371V67.6893H87.784V64.6371H91.2065ZM87.784 60.5068H91.2065V63.5591H87.784V60.5068ZM83.1526 60.5068H86.5752V63.5591H83.1526V60.5068Z" fill="#001E60"/>
<g id="REAL ESTATE CONNECT">
<path d="M27 107.184V103.14H28.6707C28.9735 103.14 29.2348 103.194 29.4547 103.304C29.6759 103.412 29.8464 103.567 29.9662 103.77C30.086 103.971 30.1459 104.21 30.1459 104.487C30.1459 104.767 30.0847 105.005 29.9622 105.201C29.8398 105.396 29.666 105.545 29.4409 105.648C29.2157 105.749 28.9491 105.8 28.6411 105.8H27.5845V105.03H28.4594C28.6068 105.03 28.7299 105.011 28.8287 104.972C28.9287 104.933 29.0044 104.874 29.0558 104.795C29.1071 104.714 29.1328 104.612 29.1328 104.487C29.1328 104.362 29.1071 104.258 29.0558 104.177C29.0044 104.094 28.9287 104.032 28.8287 103.991C28.7286 103.949 28.6055 103.928 28.4594 103.928H27.9775V107.184H27ZM29.277 105.336L30.2841 107.184H29.2177L28.2303 105.336H29.277Z" fill="#001E60"/>
<path d="M31.5718 107.184V103.14H34.3919V103.934H32.5494V104.763H34.2477V105.559H32.5494V106.39H34.3919V107.184H31.5718Z" fill="#001E60"/>
<path d="M36.7687 107.184H35.7181L37.0827 103.14H38.3841L39.7487 107.184H38.6981L37.7482 104.159H37.7166L36.7687 107.184ZM36.6285 105.592H38.8245V106.335H36.6285V105.592Z" fill="#001E60"/>
<path d="M41.0739 107.184V103.14H42.0514V106.39H43.734V107.184H41.0739Z" fill="#001E60"/>
<path d="M47.2143 107.184V103.14H50.0344V103.934H48.1919V104.763H49.8902V105.559H48.1919V106.39H50.0344V107.184H47.2143Z" fill="#001E60"/>
<path d="M53.7225 104.352C53.7093 104.207 53.6507 104.095 53.5467 104.015C53.444 103.933 53.2972 103.892 53.1063 103.892C52.9799 103.892 52.8746 103.909 52.7903 103.942C52.7061 103.974 52.6429 104.02 52.6008 104.078C52.5586 104.134 52.5369 104.2 52.5356 104.273C52.533 104.334 52.5448 104.387 52.5711 104.433C52.5988 104.479 52.6383 104.52 52.6896 104.556C52.7423 104.59 52.8055 104.62 52.8792 104.647C52.9529 104.673 53.0359 104.696 53.128 104.716L53.4756 104.795C53.6757 104.838 53.8521 104.896 54.0049 104.968C54.1589 105.041 54.2879 105.127 54.3919 105.227C54.4972 105.327 54.5769 105.442 54.6309 105.573C54.6849 105.703 54.7125 105.849 54.7138 106.011C54.7125 106.267 54.648 106.486 54.5203 106.669C54.3926 106.852 54.2089 106.992 53.9693 107.089C53.731 107.187 53.4433 107.236 53.1063 107.236C52.768 107.236 52.4731 107.185 52.2216 107.083C51.9701 106.982 51.7746 106.828 51.6351 106.621C51.4955 106.415 51.4238 106.153 51.4198 105.837H52.3559C52.3638 105.968 52.3987 106.076 52.4606 106.163C52.5224 106.25 52.6073 106.316 52.7153 106.361C52.8246 106.405 52.951 106.428 53.0945 106.428C53.2261 106.428 53.338 106.41 53.4302 106.375C53.5237 106.339 53.5954 106.29 53.6454 106.226C53.6955 106.163 53.7211 106.091 53.7225 106.009C53.7211 105.933 53.6974 105.868 53.6514 105.814C53.6053 105.758 53.5342 105.711 53.4381 105.671C53.3433 105.631 53.2222 105.593 53.0747 105.559L52.6521 105.46C52.3019 105.38 52.0261 105.25 51.8247 105.071C51.6232 104.891 51.5232 104.647 51.5245 104.34C51.5232 104.09 51.5903 103.871 51.7259 103.683C51.8615 103.495 52.0491 103.348 52.2887 103.242C52.5284 103.137 52.8015 103.084 53.1083 103.084C53.4216 103.084 53.6935 103.138 53.9239 103.244C54.1556 103.35 54.3353 103.498 54.463 103.689C54.5907 103.88 54.6559 104.101 54.6585 104.352H53.7225Z" fill="#001E60"/>
<path d="M55.965 103.934V103.14H59.3834V103.934H58.157V107.184H57.1933V103.934H55.965Z" fill="#001E60"/>
<path d="M61.1204 107.184H60.0698L61.4344 103.14H62.7358L64.1004 107.184H63.0498L62.0999 104.159H62.0683L61.1204 107.184ZM60.9801 105.592H63.1761V106.335H60.9801V105.592Z" fill="#001E60"/>
<path d="M64.7882 103.934V103.14H68.2066V103.934H66.9803V107.184H66.0165V103.934H64.7882Z" fill="#001E60"/>
<path d="M69.5738 107.184V103.14H72.3938V103.934H70.5513V104.763H72.2497V105.559H70.5513V106.39H72.3938V107.184H69.5738Z" fill="#001E60"/>
<path d="M79.6515 104.605H78.6641C78.651 104.504 78.624 104.412 78.5832 104.331C78.5423 104.249 78.4884 104.179 78.4212 104.121C78.3541 104.063 78.2744 104.019 78.1823 103.989C78.0914 103.957 77.9907 103.942 77.8801 103.942C77.684 103.942 77.5148 103.99 77.3726 104.086C77.2317 104.182 77.1231 104.321 77.0467 104.502C76.9717 104.684 76.9342 104.904 76.9342 105.162C76.9342 105.431 76.9724 105.656 77.0487 105.837C77.1264 106.018 77.235 106.154 77.3746 106.246C77.5154 106.337 77.682 106.382 77.8742 106.382C77.9822 106.382 78.0802 106.369 78.1684 106.341C78.258 106.313 78.3363 106.273 78.4034 106.22C78.4719 106.167 78.5279 106.101 78.5713 106.025C78.6161 105.947 78.647 105.86 78.6641 105.762L79.6515 105.768C79.6344 105.947 79.5824 106.124 79.4955 106.298C79.4099 106.471 79.2921 106.63 79.142 106.773C78.9919 106.916 78.8089 107.029 78.593 107.113C78.3784 107.197 78.1322 107.239 77.8545 107.239C77.4884 107.239 77.1606 107.159 76.871 106.999C76.5827 106.837 76.3549 106.601 76.1877 106.292C76.0205 105.982 75.9369 105.606 75.9369 105.162C75.9369 104.717 76.0218 104.34 76.1917 104.03C76.3615 103.721 76.5912 103.486 76.8809 103.325C77.1705 103.165 77.495 103.084 77.8545 103.084C78.0993 103.084 78.3258 103.119 78.5338 103.187C78.7418 103.254 78.9248 103.353 79.0828 103.483C79.2408 103.612 79.3691 103.771 79.4679 103.959C79.5666 104.148 79.6278 104.363 79.6515 104.605Z" fill="#001E60"/>
<path d="M84.918 105.162C84.918 105.607 84.8324 105.984 84.6613 106.294C84.4901 106.603 84.2584 106.838 83.9661 106.999C83.6752 107.159 83.3487 107.239 82.9866 107.239C82.6233 107.239 82.2961 107.159 82.0051 106.997C81.7142 106.835 81.4831 106.6 81.312 106.292C81.1421 105.982 81.0572 105.606 81.0572 105.162C81.0572 104.717 81.1421 104.34 81.312 104.03C81.4831 103.721 81.7142 103.486 82.0051 103.325C82.2961 103.165 82.6233 103.084 82.9866 103.084C83.3487 103.084 83.6752 103.165 83.9661 103.325C84.2584 103.486 84.4901 103.721 84.6613 104.03C84.8324 104.34 84.918 104.717 84.918 105.162ZM83.9187 105.162C83.9187 104.899 83.8812 104.676 83.8062 104.494C83.7324 104.313 83.6258 104.175 83.4863 104.082C83.348 103.988 83.1815 103.942 82.9866 103.942C82.7931 103.942 82.6265 103.988 82.487 104.082C82.3474 104.175 82.2401 104.313 82.1651 104.494C82.0914 104.676 82.0545 104.899 82.0545 105.162C82.0545 105.425 82.0914 105.648 82.1651 105.829C82.2401 106.011 82.3474 106.149 82.487 106.242C82.6265 106.336 82.7931 106.382 82.9866 106.382C83.1815 106.382 83.348 106.336 83.4863 106.242C83.6258 106.149 83.7324 106.011 83.8062 105.829C83.8812 105.648 83.9187 105.425 83.9187 105.162Z" fill="#001E60"/>
<path d="M89.8206 103.14V107.184H88.9912L87.3817 104.85H87.356V107.184H86.3785V103.14H87.2198L88.8115 105.47H88.845V103.14H89.8206Z" fill="#001E60"/>
<path d="M94.7671 103.14V107.184H93.9377L92.3282 104.85H92.3026V107.184H91.325V103.14H92.1663L93.758 105.47H93.7916V103.14H94.7671Z" fill="#001E60"/>
<path d="M96.2716 107.184V103.14H99.0916V103.934H97.2491V104.763H98.9475V105.559H97.2491V106.39H99.0916V107.184H96.2716Z" fill="#001E60"/>
<path d="M104.265 104.605H103.277C103.264 104.504 103.237 104.412 103.196 104.331C103.156 104.249 103.102 104.179 103.034 104.121C102.967 104.063 102.888 104.019 102.796 103.989C102.705 103.957 102.604 103.942 102.493 103.942C102.297 103.942 102.128 103.99 101.986 104.086C101.845 104.182 101.736 104.321 101.66 104.502C101.585 104.684 101.547 104.904 101.547 105.162C101.547 105.431 101.586 105.656 101.662 105.837C101.74 106.018 101.848 106.154 101.988 106.246C102.129 106.337 102.295 106.382 102.487 106.382C102.595 106.382 102.693 106.369 102.782 106.341C102.871 106.313 102.95 106.273 103.017 106.22C103.085 106.167 103.141 106.101 103.185 106.025C103.229 105.947 103.26 105.86 103.277 105.762L104.265 105.768C104.248 105.947 104.196 106.124 104.109 106.298C104.023 106.471 103.905 106.63 103.755 106.773C103.605 106.916 103.422 107.029 103.206 107.113C102.992 107.197 102.745 107.239 102.468 107.239C102.102 107.239 101.774 107.159 101.484 106.999C101.196 106.837 100.968 106.601 100.801 106.292C100.634 105.982 100.55 105.606 100.55 105.162C100.55 104.717 100.635 104.34 100.805 104.03C100.975 103.721 101.204 103.486 101.494 103.325C101.784 103.165 102.108 103.084 102.468 103.084C102.713 103.084 102.939 103.119 103.147 103.187C103.355 103.254 103.538 103.353 103.696 103.483C103.854 103.612 103.982 103.771 104.081 103.959C104.18 104.148 104.241 104.363 104.265 104.605Z" fill="#001E60"/>
<path d="M105.582 103.934V103.14H109V103.934H107.774V107.184H106.81V103.934H105.582Z" fill="#001E60"/>
</g>
</g>
</svg>
