<svg width="96" height="96" viewBox="0 0 96 96" fill="none" xmlns="http://www.w3.org/2000/svg">
<path d="M28 42C28 39.7909 29.7909 38 32 38H64C66.2092 38 68 39.7909 68 42V64C68 66.2092 66.2092 68 64 68H32C29.7909 68 28 66.2092 28 64V42Z" stroke="#303237" strokeWidth="2" strokeLinecap="round" strokeLinejoin="round"/>
<path d="M56 38V32C56 29.7909 54.2092 28 52 28H44C41.7909 28 40 29.7909 40 32V38" stroke="#303237" strokeWidth="2" strokeLinecap="round" strokeLinejoin="round"/>
<path d="M68 48H28" stroke="#303237" strokeWidth="2" strokeLinecap="round" strokeLinejoin="round"/>
<path d="M38 48V52" stroke="#303237" strokeWidth="2" strokeLinecap="round" strokeLinejoin="round"/>
<path d="M58 48V52" stroke="#303237" strokeWidth="2" strokeLinecap="round" strokeLinejoin="round"/>
<rect x="1" y="1" width="94" height="94" rx="47" stroke="#303237" strokeWidth="2"/>
</svg>
