<svg width="101" height="53" viewBox="0 0 101 53" fill="none" xmlns="http://www.w3.org/2000/svg">
<g id="P4U">
<mask id="path-1-outside-1_1237_10796" maskUnits="userSpaceOnUse" x="0" y="-1" width="101" height="55" fill="black">
<rect fill="white" y="-1" width="101" height="55"/>
<path d="M21.8971 19.6844C21.3007 20.6714 20.6381 21.8557 16.8611 28.4354C30.0475 25.4745 36.475 15.8682 35.2823 11.4598C35.0172 10.6044 34.0233 10.1439 33.1618 10.1439C31.6378 10.1439 29.186 10.9992 26.9331 11.7888C25.8729 12.1836 25.3428 12.381 24.4151 12.6441C24.3488 14.2891 23.4212 16.9209 21.8971 19.6844ZM5 42.8449C5 41.9237 5.13253 40.7394 5.46384 39.555C7.12042 33.8965 13.0841 22.0531 18.7827 13.1047C16.6623 12.6441 15.5358 11.5256 14.9395 10.2097C14.4756 9.22271 14.7407 8.63054 16.1985 8.49895C18.7165 8.30156 21.2345 7.4462 23.6862 6.59084C26.0717 5.73548 28.3909 5.14331 30.9089 5.01172C34.5534 4.88013 37.8003 5.80128 39.3906 10.6044C40.9146 15.2102 39.6556 18.5001 37.3364 21.9873C34.0233 27.1194 26.9994 32.5148 18.7165 33.6333C16.7286 33.8965 15.3371 33.7649 14.2768 33.3701C12.4877 36.7916 10.3673 41.0026 8.24689 46.0689C7.71679 47.2532 7.18668 47.2532 6.259 46.3321C5.53011 45.5425 5 44.4898 5 42.8449Z"/>
<path d="M39.4258 29.8171C42.9377 29.0275 46.8472 28.4354 50.4255 28.238C52.6784 23.7638 55.4615 18.8948 58.3108 14.618C51.817 19.158 44.528 24.7508 39.4258 29.8171ZM66.1961 9.94648C67.1238 11.5256 67.1238 11.9204 65.7322 14.0917C63.413 17.5789 60.0999 23.3032 56.7205 29.2907C58.0457 30.1461 58.7083 31.3304 59.1722 32.6464C59.3047 33.2385 58.8409 33.5675 57.5156 33.3043C56.7205 33.1069 55.7265 33.1069 54.6 33.1069C51.817 38.1733 49.4315 43.1738 47.8412 46.9901C47.3111 48.2402 46.2509 48.306 45.522 47.319C44.8593 46.2663 44.263 45.1477 44.263 43.7002C44.263 42.7791 44.4618 41.5289 45.0581 39.9498C45.7208 38.1733 46.3834 36.4626 47.6424 33.6991C44.7268 34.1597 41.8112 34.6861 39.2932 35.2782C38.0342 35.5414 37.1066 35.5414 36.3777 34.6203C35.3837 33.3701 34.5886 31.8568 34.0585 30.8699C33.5946 30.0145 33.8597 29.0933 34.456 28.3696C39.8896 22.0531 52.6121 11.9204 60.895 6.59084C62.0215 5.86708 63.5456 5.4723 64.407 6.91983L66.1961 9.94648Z"/>
<path d="M67.8382 47.5822C66.3804 47.5822 65.1214 47.319 63.9949 46.8585C61.2118 45.7399 58.6276 43.3054 58.6276 38.6997C58.6276 37.4495 58.7601 36.1994 59.0914 34.7519C60.8805 27.58 68.3683 15.276 74.332 6.19606C75.2596 4.88013 76.3198 5.07752 77.115 6.26186C77.6451 7.11722 77.9764 8.03837 77.9764 9.22271C77.9764 10.736 77.4463 12.8415 75.9223 15.6708C72.7416 21.5267 66.3804 31.3304 64.5913 38.1733C64.3262 39.3576 64.1274 40.4104 64.1274 41.2657C64.1274 43.437 65.1214 44.3582 66.5792 44.3582C69.9586 44.3582 74.3319 39.1602 78.2415 31.5278C81.8197 24.6192 89.0424 11.7888 92.6206 6.13026C93.482 4.74853 94.5422 5.01172 95.3374 6.19606C95.7349 6.91983 96 7.90678 96 8.89373C96 10.3413 95.6024 12.3152 94.5422 14.5523C92.2893 19.5528 84.1389 34.5545 79.7655 40.542C76.2536 45.3451 71.8802 47.5822 67.8382 47.5822Z"/>
</mask>
<path d="M21.8971 19.6844C21.3007 20.6714 20.6381 21.8557 16.8611 28.4354C30.0475 25.4745 36.475 15.8682 35.2823 11.4598C35.0172 10.6044 34.0233 10.1439 33.1618 10.1439C31.6378 10.1439 29.186 10.9992 26.9331 11.7888C25.8729 12.1836 25.3428 12.381 24.4151 12.6441C24.3488 14.2891 23.4212 16.9209 21.8971 19.6844ZM5 42.8449C5 41.9237 5.13253 40.7394 5.46384 39.555C7.12042 33.8965 13.0841 22.0531 18.7827 13.1047C16.6623 12.6441 15.5358 11.5256 14.9395 10.2097C14.4756 9.22271 14.7407 8.63054 16.1985 8.49895C18.7165 8.30156 21.2345 7.4462 23.6862 6.59084C26.0717 5.73548 28.3909 5.14331 30.9089 5.01172C34.5534 4.88013 37.8003 5.80128 39.3906 10.6044C40.9146 15.2102 39.6556 18.5001 37.3364 21.9873C34.0233 27.1194 26.9994 32.5148 18.7165 33.6333C16.7286 33.8965 15.3371 33.7649 14.2768 33.3701C12.4877 36.7916 10.3673 41.0026 8.24689 46.0689C7.71679 47.2532 7.18668 47.2532 6.259 46.3321C5.53011 45.5425 5 44.4898 5 42.8449Z" fill="#29186B"/>
<path d="M39.4258 29.8171C42.9377 29.0275 46.8472 28.4354 50.4255 28.238C52.6784 23.7638 55.4615 18.8948 58.3108 14.618C51.817 19.158 44.528 24.7508 39.4258 29.8171ZM66.1961 9.94648C67.1238 11.5256 67.1238 11.9204 65.7322 14.0917C63.413 17.5789 60.0999 23.3032 56.7205 29.2907C58.0457 30.1461 58.7083 31.3304 59.1722 32.6464C59.3047 33.2385 58.8409 33.5675 57.5156 33.3043C56.7205 33.1069 55.7265 33.1069 54.6 33.1069C51.817 38.1733 49.4315 43.1738 47.8412 46.9901C47.3111 48.2402 46.2509 48.306 45.522 47.319C44.8593 46.2663 44.263 45.1477 44.263 43.7002C44.263 42.7791 44.4618 41.5289 45.0581 39.9498C45.7208 38.1733 46.3834 36.4626 47.6424 33.6991C44.7268 34.1597 41.8112 34.6861 39.2932 35.2782C38.0342 35.5414 37.1066 35.5414 36.3777 34.6203C35.3837 33.3701 34.5886 31.8568 34.0585 30.8699C33.5946 30.0145 33.8597 29.0933 34.456 28.3696C39.8896 22.0531 52.6121 11.9204 60.895 6.59084C62.0215 5.86708 63.5456 5.4723 64.407 6.91983L66.1961 9.94648Z" fill="#29186B"/>
<path d="M67.8382 47.5822C66.3804 47.5822 65.1214 47.319 63.9949 46.8585C61.2118 45.7399 58.6276 43.3054 58.6276 38.6997C58.6276 37.4495 58.7601 36.1994 59.0914 34.7519C60.8805 27.58 68.3683 15.276 74.332 6.19606C75.2596 4.88013 76.3198 5.07752 77.115 6.26186C77.6451 7.11722 77.9764 8.03837 77.9764 9.22271C77.9764 10.736 77.4463 12.8415 75.9223 15.6708C72.7416 21.5267 66.3804 31.3304 64.5913 38.1733C64.3262 39.3576 64.1274 40.4104 64.1274 41.2657C64.1274 43.437 65.1214 44.3582 66.5792 44.3582C69.9586 44.3582 74.3319 39.1602 78.2415 31.5278C81.8197 24.6192 89.0424 11.7888 92.6206 6.13026C93.482 4.74853 94.5422 5.01172 95.3374 6.19606C95.7349 6.91983 96 7.90678 96 8.89373C96 10.3413 95.6024 12.3152 94.5422 14.5523C92.2893 19.5528 84.1389 34.5545 79.7655 40.542C76.2536 45.3451 71.8802 47.5822 67.8382 47.5822Z" fill="#29186B"/>
<path d="M21.8971 19.6844C21.3007 20.6714 20.6381 21.8557 16.8611 28.4354C30.0475 25.4745 36.475 15.8682 35.2823 11.4598C35.0172 10.6044 34.0233 10.1439 33.1618 10.1439C31.6378 10.1439 29.186 10.9992 26.9331 11.7888C25.8729 12.1836 25.3428 12.381 24.4151 12.6441C24.3488 14.2891 23.4212 16.9209 21.8971 19.6844ZM5 42.8449C5 41.9237 5.13253 40.7394 5.46384 39.555C7.12042 33.8965 13.0841 22.0531 18.7827 13.1047C16.6623 12.6441 15.5358 11.5256 14.9395 10.2097C14.4756 9.22271 14.7407 8.63054 16.1985 8.49895C18.7165 8.30156 21.2345 7.4462 23.6862 6.59084C26.0717 5.73548 28.3909 5.14331 30.9089 5.01172C34.5534 4.88013 37.8003 5.80128 39.3906 10.6044C40.9146 15.2102 39.6556 18.5001 37.3364 21.9873C34.0233 27.1194 26.9994 32.5148 18.7165 33.6333C16.7286 33.8965 15.3371 33.7649 14.2768 33.3701C12.4877 36.7916 10.3673 41.0026 8.24689 46.0689C7.71679 47.2532 7.18668 47.2532 6.259 46.3321C5.53011 45.5425 5 44.4898 5 42.8449Z" stroke="white" stroke-width="10" mask="url(#path-1-outside-1_1237_10796)"/>
<path d="M39.4258 29.8171C42.9377 29.0275 46.8472 28.4354 50.4255 28.238C52.6784 23.7638 55.4615 18.8948 58.3108 14.618C51.817 19.158 44.528 24.7508 39.4258 29.8171ZM66.1961 9.94648C67.1238 11.5256 67.1238 11.9204 65.7322 14.0917C63.413 17.5789 60.0999 23.3032 56.7205 29.2907C58.0457 30.1461 58.7083 31.3304 59.1722 32.6464C59.3047 33.2385 58.8409 33.5675 57.5156 33.3043C56.7205 33.1069 55.7265 33.1069 54.6 33.1069C51.817 38.1733 49.4315 43.1738 47.8412 46.9901C47.3111 48.2402 46.2509 48.306 45.522 47.319C44.8593 46.2663 44.263 45.1477 44.263 43.7002C44.263 42.7791 44.4618 41.5289 45.0581 39.9498C45.7208 38.1733 46.3834 36.4626 47.6424 33.6991C44.7268 34.1597 41.8112 34.6861 39.2932 35.2782C38.0342 35.5414 37.1066 35.5414 36.3777 34.6203C35.3837 33.3701 34.5886 31.8568 34.0585 30.8699C33.5946 30.0145 33.8597 29.0933 34.456 28.3696C39.8896 22.0531 52.6121 11.9204 60.895 6.59084C62.0215 5.86708 63.5456 5.4723 64.407 6.91983L66.1961 9.94648Z" stroke="white" stroke-width="10" mask="url(#path-1-outside-1_1237_10796)"/>
<path d="M67.8382 47.5822C66.3804 47.5822 65.1214 47.319 63.9949 46.8585C61.2118 45.7399 58.6276 43.3054 58.6276 38.6997C58.6276 37.4495 58.7601 36.1994 59.0914 34.7519C60.8805 27.58 68.3683 15.276 74.332 6.19606C75.2596 4.88013 76.3198 5.07752 77.115 6.26186C77.6451 7.11722 77.9764 8.03837 77.9764 9.22271C77.9764 10.736 77.4463 12.8415 75.9223 15.6708C72.7416 21.5267 66.3804 31.3304 64.5913 38.1733C64.3262 39.3576 64.1274 40.4104 64.1274 41.2657C64.1274 43.437 65.1214 44.3582 66.5792 44.3582C69.9586 44.3582 74.3319 39.1602 78.2415 31.5278C81.8197 24.6192 89.0424 11.7888 92.6206 6.13026C93.482 4.74853 94.5422 5.01172 95.3374 6.19606C95.7349 6.91983 96 7.90678 96 8.89373C96 10.3413 95.6024 12.3152 94.5422 14.5523C92.2893 19.5528 84.1389 34.5545 79.7655 40.542C76.2536 45.3451 71.8802 47.5822 67.8382 47.5822Z" stroke="white" stroke-width="10" mask="url(#path-1-outside-1_1237_10796)"/>
</g>
</svg>
