<svg width="447" height="106" viewBox="0 0 447 106" fill="none" xmlns="http://www.w3.org/2000/svg">
<g id="Property4u.ng">
<mask id="path-1-outside-1_1237_10790" maskUnits="userSpaceOnUse" x="0" y="-1" width="447" height="108" fill="black">
<rect fill="white" y="-1" width="447" height="108"/>
<path d="M29.718 26.678C28.8456 28.135 27.8763 29.8834 22.3511 39.5967C41.6408 35.2257 51.0434 21.0443 49.2986 14.5363C48.9108 13.2736 47.4568 12.5937 46.1967 12.5937C43.9672 12.5937 40.3807 13.8564 37.085 15.022C35.534 15.6048 34.7586 15.8962 33.4015 16.2847C33.3046 18.7131 31.9475 22.5984 29.718 26.678ZM5 60.8688C5 59.5089 5.19387 57.7605 5.67853 56.0121C8.10187 47.6587 16.8259 30.1748 25.1621 16.9647C22.0603 16.2847 20.4124 14.6335 19.54 12.6908C18.8615 11.2338 19.2492 10.3596 21.3817 10.1654C25.0652 9.87396 28.7487 8.61123 32.3352 7.3485C35.8248 6.08576 39.2175 5.21157 42.901 5.0173C48.2323 4.82303 52.982 6.1829 55.3084 13.2736C57.5379 20.0729 55.6962 24.9296 52.3035 30.0776C47.4568 37.654 37.1819 45.6189 25.0652 47.2702C22.1572 47.6587 20.1216 47.4644 18.5707 46.8816C15.9535 51.9326 12.8516 58.1491 9.74974 65.6283C8.97427 67.3767 8.1988 67.3767 6.84173 66.0169C5.77547 64.8513 5 63.2971 5 60.8688Z"/>
<path d="M61.9037 23.1812C63.9393 23.1812 64.8117 24.3468 64.8117 26.5808C64.8117 28.4264 64.1332 31.2432 63.0669 34.3515C65.3933 33.7687 68.0105 32.4088 70.9185 30.2719C72.5664 29.1063 73.5357 28.912 74.7958 30.1748C76.1529 31.5346 77.6069 34.0601 77.6069 36.3913C77.6069 37.5569 77.1222 38.9167 76.056 40.1795C70.8216 46.2017 65.2964 53.8752 65.2964 59.6061C65.2964 62.1315 66.0718 63.6857 67.4289 63.6857C70.7246 63.6857 74.602 58.2462 77.6069 51.544C78.3824 49.7956 79.7394 49.6985 80.6118 51.4469C81.2904 52.8068 81.3873 55.138 80.321 57.7605C77.9946 63.2971 72.2756 67.4739 66.7504 67.4739C60.8374 67.4739 57.6386 63.2971 57.6386 58.0519C57.6386 51.8354 62.7761 44.3562 67.6228 38.4311C65.1025 39.4995 62.6792 39.8881 60.5466 39.9852C53.2766 52.6125 47.7514 61.5487 46.3943 68.2509C46.0066 69.9993 44.7465 70.8735 43.0017 69.028C41.3538 67.4739 40.5783 65.4341 40.5783 63.2971C40.5783 61.1602 41.2569 58.829 42.6139 56.3036C44.2618 53.1953 49.2054 45.2304 54.5368 38.6253C53.3736 37.5569 52.695 36.2941 52.695 35.0314C52.695 30.0776 58.8988 23.1812 61.9037 23.1812Z"/>
<path d="M120.168 56.8863C120.168 59.7032 121.041 61.6459 122.592 61.6459C125.306 61.5487 129.959 55.4294 133.545 48.0472C135.775 43.3849 137.035 38.6253 137.035 35.3228C137.035 33.5744 136.841 32.2146 136.162 32.2146C134.321 32.2146 129.571 35.9056 125.306 42.9963L121.913 48.5329C120.847 51.4469 120.168 54.3609 120.168 56.8863ZM101.46 41.2479C102.429 39.0139 102.817 36.6827 102.817 35.4199C102.817 33.9629 102.042 33.3801 101.363 33.3801C100.782 33.3801 99.9092 34.1572 99.9092 35.7113C99.9092 37.4597 100.394 39.9852 101.46 41.2479ZM84.3998 58.0519C84.3998 60.7717 85.1753 61.8401 86.7262 61.8401C89.3434 61.8401 93.3177 58.0519 96.6134 51.9326C97.9705 49.31 99.2306 46.6874 100.103 44.1619C97.3889 42.5107 94.7717 39.5967 93.8993 36.8769C89.1496 41.9279 84.3998 50.4756 84.3998 58.0519ZM152.35 50.767C152.738 52.8068 152.544 54.8466 150.993 57.4691C147.213 63.7828 139.458 67.7653 132.285 67.7653C124.433 67.7653 118.327 65.8226 115.515 60.1889C110.863 68.8337 106.113 78.547 101.945 87.8718C101.169 89.7173 99.8122 90.203 98.5521 88.2603C97.8736 87.1919 97.195 85.7349 97.195 83.6951C97.195 82.0438 97.5828 79.9069 98.2613 77.3814C100.006 71.8448 107.179 57.2749 113.771 45.2304C112.026 46.0075 110.281 46.2988 108.148 46.2017C105.628 55.8179 97.8736 66.9882 88.8587 66.9882C85.66 66.9882 82.2673 65.7255 79.4562 62.1315C77.6145 59.7032 76.839 56.7892 76.839 53.7781C76.839 49.4071 78.293 44.6476 80.9102 40.0823C85.2722 32.4088 91.2821 27.455 97.7766 27.455C100.588 27.455 102.332 28.4264 104.174 30.9518C107.373 34.74 109.506 36.0999 108.827 42.6078C113.965 41.6365 119.199 35.2257 123.852 28.2321C125.306 25.998 127.051 26.3866 127.923 28.5235C128.214 29.3006 128.505 30.2719 128.698 31.2432C131.122 29.3006 133.836 27.9407 136.744 27.9407C138.779 27.9407 140.815 28.7178 142.269 30.4662C144.305 32.6031 145.08 35.2257 145.08 38.1397C145.08 42.3164 143.432 47.4644 141.3 51.9326C138.973 56.4978 135.871 61.3545 133.06 63.6857C139.846 62.1315 146.437 55.7208 148.957 50.3784C149.927 48.3386 151.962 48.8243 152.35 50.767Z"/>
<path d="M159.738 44.6476C159.253 45.5218 159.059 45.9103 158.865 46.396C159.641 46.7845 160.319 46.9788 160.998 46.9788C163.518 46.9788 166.135 44.1619 168.074 41.5393C170.788 38.0425 173.017 33.283 172.048 32.506C170.303 31.1461 163.712 36.7798 159.738 44.6476ZM213.826 50.3784C214.311 51.4469 214.602 54.1666 213.342 56.8863C210.918 62.9086 203.745 67.0853 198.026 67.0853C191.919 67.0853 188.527 62.8115 188.527 57.0806C188.527 55.5265 188.818 53.7781 189.496 51.7383C191.144 46.4931 194.924 41.1508 198.802 36.5855C196.184 37.7511 193.761 38.1397 191.629 38.2368C183.68 54.8466 173.308 66.6968 161.482 66.8911C152.564 66.9882 147.621 61.1602 147.621 53.4867C147.621 50.087 148.59 46.2017 150.529 42.3164C155.569 32.4088 163.518 26.9694 169.043 26.9694C170.303 26.9694 171.37 27.1636 172.339 27.7464C174.956 29.3977 176.798 30.8547 178.349 32.7974C178.833 33.6715 179.221 34.8371 179.221 36.0027C179.221 38.8196 177.767 42.8021 175.15 46.2017C172.339 49.6985 168.655 52.1268 164.39 52.1268C162.064 52.1268 159.738 51.544 157.508 49.9899C156.926 51.9326 156.636 53.9724 156.636 55.7208C156.636 60.1889 158.38 63.1029 161.095 63.1029C170.788 63.1029 180.869 49.1157 186.006 37.2655C184.262 36.197 183.292 34.74 183.292 32.9916C183.292 27.8436 189.787 20.7529 193.083 20.6557C195.118 20.6557 195.894 21.9185 195.894 24.0554C195.894 26.0952 195.118 29.0092 194.052 32.2146C196.766 31.5346 199.286 30.1748 202.485 28.135C204.036 27.1636 205.393 26.4837 206.556 28.0378C207.816 29.6891 209.464 32.3117 209.464 34.74C209.464 35.9056 208.98 37.1683 207.816 38.4311C203.648 43.2877 198.899 49.8928 197.154 54.8466C196.766 56.1093 196.475 57.8577 196.475 59.0233C196.475 61.5487 197.251 63.2 198.608 63.2C202.097 63.2 207.623 57.2749 210.531 50.4756C211.403 48.63 212.857 48.2415 213.826 50.3784Z"/>
<path d="M208.45 56.2064C208.45 54.0695 209.031 51.3498 210.388 48.1444C212.327 43.3849 216.01 35.7113 219.888 28.7178C216.883 28.3292 215.138 27.2608 214.363 26.0952C213.005 24.0554 213.975 23.084 216.204 23.1812C218.434 23.2783 221.051 23.1812 223.183 22.9869C226.188 17.7417 228.224 14.5363 230.453 11.331C231.907 9.19402 233.071 9.29115 234.137 11.1367C234.815 12.3023 235.203 13.9535 235.203 15.1191C235.203 16.8675 234.815 19.1016 233.652 21.8213C236.657 22.2099 238.305 23.764 238.984 24.9296C239.953 26.678 239.274 27.8436 236.948 27.5522C235.203 27.3579 232.683 27.5522 230.55 27.8436C226.867 34.1572 221.342 43.7734 217.949 51.1555C216.786 53.7781 216.204 56.3036 216.204 58.4405C216.204 61.3545 217.174 63.3943 218.821 63.3943C222.602 63.3943 227.642 57.2749 231.035 49.9899C232.101 47.6587 234.331 47.4644 235.009 50.087C235.494 52.1268 235.106 53.5838 234.04 55.8179C232.683 58.7319 226.188 67.0853 218.046 67.0853C212.909 67.0853 208.45 62.9086 208.45 56.2064Z"/>
<path d="M268.051 49.5042C268.535 51.0584 268.342 53.5838 266.694 56.1093C262.816 62.0344 256.419 65.6283 248.47 68.9308C243.139 81.7524 236.547 97.2937 228.114 100.499C225.885 101.373 223.849 101.373 221.523 98.265C220.069 96.2252 218.615 93.3112 218.615 90.203C218.615 89.0374 218.906 87.3861 219.487 85.6377C222.492 77.2843 230.344 71.3592 239.746 67.571L241.2 64.1713C238.68 66.0169 236.16 66.8911 233.252 66.8911C228.405 66.8911 226.272 63.2 226.272 59.1204C226.272 57.0806 226.66 54.7494 227.533 52.3211C229.762 46.2017 234.512 36.3913 240.522 28.135C241.782 26.4837 243.236 26.3866 244.302 27.9407C245.271 29.3006 246.144 31.049 246.144 32.6031C246.144 35.0314 244.981 37.8483 242.751 41.4422C239.455 46.6874 237.42 50.6698 235.578 55.2351C234.221 58.7319 233.349 62.6172 235.869 62.6172C238.389 62.6172 242.751 56.8863 247.501 48.8243C253.995 37.8483 256.613 31.9232 258.939 28.4264C260.296 26.678 261.556 26.4837 262.622 27.5522C264.076 29.0092 264.464 30.4662 264.464 32.506C264.464 34.4486 263.98 36.5855 262.719 39.0139C259.908 44.4533 254.868 53.8752 250.894 63.1029C256.806 59.5089 261.847 54.5552 264.949 50.1842C266.209 48.4358 267.663 48.2415 268.051 49.5042ZM237.226 73.8846C232.573 77.09 229.277 81.2667 227.242 85.0549C224.818 89.6202 224.14 93.6026 225.109 94.4768C225.788 95.0596 227.823 92.2428 230.538 87.4833C232.573 83.8893 234.9 79.1298 237.226 73.8846Z"/>
<path d="M275.902 41.6365C281.04 40.4709 286.759 39.5967 291.993 39.3053C295.289 32.7002 299.36 25.5124 303.528 19.1987C294.029 25.9009 283.366 34.1572 275.902 41.6365ZM315.063 12.3023C316.421 14.6335 316.421 15.2163 314.385 18.4217C310.992 23.5697 306.146 32.0203 301.202 40.8594C303.141 42.1221 304.11 43.8705 304.789 45.8132C304.982 46.6874 304.304 47.173 302.365 46.7845C301.202 46.4931 299.748 46.4931 298.1 46.4931C294.029 53.9724 290.539 61.3545 288.213 66.9882C287.437 68.8337 285.887 68.9308 284.82 67.4739C283.851 65.9197 282.978 64.2685 282.978 62.1315C282.978 60.7717 283.269 58.9261 284.142 56.595C285.111 53.9724 286.08 51.4469 287.922 47.3673C283.657 48.0472 279.392 48.8243 275.708 49.6985C273.867 50.087 272.51 50.087 271.443 48.7272C269.989 46.8816 268.826 44.6476 268.051 43.1906C267.372 41.9279 267.76 40.568 268.632 39.4995C276.581 30.1748 295.192 15.2163 307.309 7.3485C308.957 6.28003 311.186 5.69723 312.446 7.83416L315.063 12.3023Z"/>
<path d="M346.546 56.8863C343.735 62.4229 337.434 67.3767 331.424 67.3767C325.705 67.3767 322.797 64.5599 322.409 60.1889C319.113 63.8799 314.751 66.8911 309.808 66.8911C304.864 66.8911 302.926 63.2 302.926 59.0233C302.926 56.8863 303.313 54.6523 304.186 52.3211C306.318 46.2017 311.262 36.4884 317.272 28.0378C318.532 26.3866 320.277 26.5808 321.44 28.0378C322.506 29.3977 322.894 31.049 322.894 32.506C322.894 36.4884 315.818 47.7558 312.425 55.2351C310.68 59.1204 310.389 62.7143 312.522 62.7143C315.042 62.7143 320.18 56.1093 325.123 48.3386C330.842 39.0139 333.363 32.4088 336.852 27.9407C338.209 26.0952 339.76 25.7066 340.923 27.3579C341.893 28.7178 342.377 30.2719 342.377 32.4088C342.377 35.7113 340.342 39.9852 336.949 45.6189C334.138 50.1842 330.358 56.7892 330.358 60.5774C330.358 62.3258 330.939 63.2971 332.199 63.2971C335.398 63.2971 340.342 56.595 343.831 50.4756C344.801 48.8243 346.449 48.5329 347.224 50.3784C347.612 51.2526 348 54.0695 346.546 56.8863Z"/>
<path d="M349.87 67.2796C347.544 66.4054 346.671 63.2 347.835 60.7717C349.192 57.7605 352.197 56.2064 354.62 57.0806C356.946 57.8577 357.722 60.6745 356.559 63.4914C355.395 66.4054 352.197 68.1538 349.87 67.2796Z"/>
<path d="M379.498 27.8436C380.371 29.3006 380.759 30.8547 380.759 32.4088C380.759 33.0888 380.759 33.7687 380.662 34.3515C384.83 30.4662 389.483 27.2608 392.972 27.2608C395.783 27.2608 398.4 30.6604 398.4 34.3515C398.4 36.4884 396.656 39.5967 393.554 45.0361C390.452 49.9899 387.156 56.4007 387.156 59.9946C387.156 62.0344 387.835 63.2971 389.095 63.2971C392.391 63.2971 397.431 56.9835 400.921 50.4756C401.89 48.63 403.247 48.7272 404.12 50.087C404.895 51.2526 404.992 54.2638 403.635 56.8863C400.921 62.2287 393.845 67.3767 388.029 67.3767C381.534 67.3767 378.723 64.0742 378.723 59.0233C378.723 53.7781 383.182 44.8419 386.962 38.8196C388.998 35.6142 390.549 33.0888 389.87 33.0888C388.998 33.0888 384.248 35.8085 378.917 41.8307C373.585 47.4644 369.223 56.9835 365.249 65.7255C364.571 67.2796 363.311 67.8624 361.76 66.3083C360.403 64.9484 359.627 63.2971 359.627 60.9659C359.627 59.5089 359.918 57.8577 360.499 55.915C362.341 50.4756 369.805 36.8769 375.815 27.8436C377.075 25.998 378.529 26.0952 379.498 27.8436Z"/>
<path d="M442 50.9612C442 52.5154 441.612 54.5552 440.158 56.7892C436.475 62.5201 429.786 66.4054 421.838 69.3194C416.7 81.8495 409.624 96.6138 401.773 100.305C399.446 101.179 397.023 100.79 394.987 98.0708C393.63 96.031 392.176 93.5055 392.176 90.4944C392.176 81.7524 401.579 71.7477 413.405 67.6681L414.665 64.4627C412.532 65.9197 410.012 66.8911 407.395 66.8911C401.87 66.8911 398.671 62.9086 398.671 57.0806C398.671 43.1906 415.053 27.1636 424.552 27.1636C427.751 27.1636 429.883 28.912 430.756 31.2432C431.143 30.5633 431.725 29.592 432.307 28.5235C433.47 26.2894 435.215 26.3866 436.475 27.8436C437.347 28.912 438.026 30.7576 438.026 32.7974C438.026 35.4199 436.959 38.0425 434.536 42.8992C431.434 49.0186 427.557 56.1093 424.358 63.4914C430.368 59.8003 435.215 55.7208 438.995 50.4756C440.255 48.8243 442 48.8243 442 50.9612ZM408.558 62.8115C411.66 62.9086 416.216 56.9835 420.965 48.8243C424.746 42.2193 426.491 37.4597 426.491 34.9343C426.491 33.7687 426.2 33.1859 425.521 33.1859C422.226 33.1859 407.298 48.4358 407.298 59.7032C407.298 61.5487 407.686 62.8115 408.558 62.8115ZM410.594 74.0789C406.522 76.9929 403.517 80.4897 401.482 83.8893C398.671 88.6489 397.411 93.2141 398.38 94.0883C399.252 94.7682 401.676 91.8542 404.681 86.6091C406.619 83.2094 408.752 78.9355 410.594 74.0789Z"/>
</mask>
<path d="M29.718 26.678C28.8456 28.135 27.8763 29.8834 22.3511 39.5967C41.6408 35.2257 51.0434 21.0443 49.2986 14.5363C48.9108 13.2736 47.4568 12.5937 46.1967 12.5937C43.9672 12.5937 40.3807 13.8564 37.085 15.022C35.534 15.6048 34.7586 15.8962 33.4015 16.2847C33.3046 18.7131 31.9475 22.5984 29.718 26.678ZM5 60.8688C5 59.5089 5.19387 57.7605 5.67853 56.0121C8.10187 47.6587 16.8259 30.1748 25.1621 16.9647C22.0603 16.2847 20.4124 14.6335 19.54 12.6908C18.8615 11.2338 19.2492 10.3596 21.3817 10.1654C25.0652 9.87396 28.7487 8.61123 32.3352 7.3485C35.8248 6.08576 39.2175 5.21157 42.901 5.0173C48.2323 4.82303 52.982 6.1829 55.3084 13.2736C57.5379 20.0729 55.6962 24.9296 52.3035 30.0776C47.4568 37.654 37.1819 45.6189 25.0652 47.2702C22.1572 47.6587 20.1216 47.4644 18.5707 46.8816C15.9535 51.9326 12.8516 58.1491 9.74974 65.6283C8.97427 67.3767 8.1988 67.3767 6.84173 66.0169C5.77547 64.8513 5 63.2971 5 60.8688Z" fill="#29186B"/>
<path d="M61.9037 23.1812C63.9393 23.1812 64.8117 24.3468 64.8117 26.5808C64.8117 28.4264 64.1332 31.2432 63.0669 34.3515C65.3933 33.7687 68.0105 32.4088 70.9185 30.2719C72.5664 29.1063 73.5357 28.912 74.7958 30.1748C76.1529 31.5346 77.6069 34.0601 77.6069 36.3913C77.6069 37.5569 77.1222 38.9167 76.056 40.1795C70.8216 46.2017 65.2964 53.8752 65.2964 59.6061C65.2964 62.1315 66.0718 63.6857 67.4289 63.6857C70.7246 63.6857 74.602 58.2462 77.6069 51.544C78.3824 49.7956 79.7394 49.6985 80.6118 51.4469C81.2904 52.8068 81.3873 55.138 80.321 57.7605C77.9946 63.2971 72.2756 67.4739 66.7504 67.4739C60.8374 67.4739 57.6386 63.2971 57.6386 58.0519C57.6386 51.8354 62.7761 44.3562 67.6228 38.4311C65.1025 39.4995 62.6792 39.8881 60.5466 39.9852C53.2766 52.6125 47.7514 61.5487 46.3943 68.2509C46.0066 69.9993 44.7465 70.8735 43.0017 69.028C41.3538 67.4739 40.5783 65.4341 40.5783 63.2971C40.5783 61.1602 41.2569 58.829 42.6139 56.3036C44.2618 53.1953 49.2054 45.2304 54.5368 38.6253C53.3736 37.5569 52.695 36.2941 52.695 35.0314C52.695 30.0776 58.8988 23.1812 61.9037 23.1812Z" fill="#29186B"/>
<path d="M120.168 56.8863C120.168 59.7032 121.041 61.6459 122.592 61.6459C125.306 61.5487 129.959 55.4294 133.545 48.0472C135.775 43.3849 137.035 38.6253 137.035 35.3228C137.035 33.5744 136.841 32.2146 136.162 32.2146C134.321 32.2146 129.571 35.9056 125.306 42.9963L121.913 48.5329C120.847 51.4469 120.168 54.3609 120.168 56.8863ZM101.46 41.2479C102.429 39.0139 102.817 36.6827 102.817 35.4199C102.817 33.9629 102.042 33.3801 101.363 33.3801C100.782 33.3801 99.9092 34.1572 99.9092 35.7113C99.9092 37.4597 100.394 39.9852 101.46 41.2479ZM84.3998 58.0519C84.3998 60.7717 85.1753 61.8401 86.7262 61.8401C89.3434 61.8401 93.3177 58.0519 96.6134 51.9326C97.9705 49.31 99.2306 46.6874 100.103 44.1619C97.3889 42.5107 94.7717 39.5967 93.8993 36.8769C89.1496 41.9279 84.3998 50.4756 84.3998 58.0519ZM152.35 50.767C152.738 52.8068 152.544 54.8466 150.993 57.4691C147.213 63.7828 139.458 67.7653 132.285 67.7653C124.433 67.7653 118.327 65.8226 115.515 60.1889C110.863 68.8337 106.113 78.547 101.945 87.8718C101.169 89.7173 99.8122 90.203 98.5521 88.2603C97.8736 87.1919 97.195 85.7349 97.195 83.6951C97.195 82.0438 97.5828 79.9069 98.2613 77.3814C100.006 71.8448 107.179 57.2749 113.771 45.2304C112.026 46.0075 110.281 46.2988 108.148 46.2017C105.628 55.8179 97.8736 66.9882 88.8587 66.9882C85.66 66.9882 82.2673 65.7255 79.4562 62.1315C77.6145 59.7032 76.839 56.7892 76.839 53.7781C76.839 49.4071 78.293 44.6476 80.9102 40.0823C85.2722 32.4088 91.2821 27.455 97.7766 27.455C100.588 27.455 102.332 28.4264 104.174 30.9518C107.373 34.74 109.506 36.0999 108.827 42.6078C113.965 41.6365 119.199 35.2257 123.852 28.2321C125.306 25.998 127.051 26.3866 127.923 28.5235C128.214 29.3006 128.505 30.2719 128.698 31.2432C131.122 29.3006 133.836 27.9407 136.744 27.9407C138.779 27.9407 140.815 28.7178 142.269 30.4662C144.305 32.6031 145.08 35.2257 145.08 38.1397C145.08 42.3164 143.432 47.4644 141.3 51.9326C138.973 56.4978 135.871 61.3545 133.06 63.6857C139.846 62.1315 146.437 55.7208 148.957 50.3784C149.927 48.3386 151.962 48.8243 152.35 50.767Z" fill="#29186B"/>
<path d="M159.738 44.6476C159.253 45.5218 159.059 45.9103 158.865 46.396C159.641 46.7845 160.319 46.9788 160.998 46.9788C163.518 46.9788 166.135 44.1619 168.074 41.5393C170.788 38.0425 173.017 33.283 172.048 32.506C170.303 31.1461 163.712 36.7798 159.738 44.6476ZM213.826 50.3784C214.311 51.4469 214.602 54.1666 213.342 56.8863C210.918 62.9086 203.745 67.0853 198.026 67.0853C191.919 67.0853 188.527 62.8115 188.527 57.0806C188.527 55.5265 188.818 53.7781 189.496 51.7383C191.144 46.4931 194.924 41.1508 198.802 36.5855C196.184 37.7511 193.761 38.1397 191.629 38.2368C183.68 54.8466 173.308 66.6968 161.482 66.8911C152.564 66.9882 147.621 61.1602 147.621 53.4867C147.621 50.087 148.59 46.2017 150.529 42.3164C155.569 32.4088 163.518 26.9694 169.043 26.9694C170.303 26.9694 171.37 27.1636 172.339 27.7464C174.956 29.3977 176.798 30.8547 178.349 32.7974C178.833 33.6715 179.221 34.8371 179.221 36.0027C179.221 38.8196 177.767 42.8021 175.15 46.2017C172.339 49.6985 168.655 52.1268 164.39 52.1268C162.064 52.1268 159.738 51.544 157.508 49.9899C156.926 51.9326 156.636 53.9724 156.636 55.7208C156.636 60.1889 158.38 63.1029 161.095 63.1029C170.788 63.1029 180.869 49.1157 186.006 37.2655C184.262 36.197 183.292 34.74 183.292 32.9916C183.292 27.8436 189.787 20.7529 193.083 20.6557C195.118 20.6557 195.894 21.9185 195.894 24.0554C195.894 26.0952 195.118 29.0092 194.052 32.2146C196.766 31.5346 199.286 30.1748 202.485 28.135C204.036 27.1636 205.393 26.4837 206.556 28.0378C207.816 29.6891 209.464 32.3117 209.464 34.74C209.464 35.9056 208.98 37.1683 207.816 38.4311C203.648 43.2877 198.899 49.8928 197.154 54.8466C196.766 56.1093 196.475 57.8577 196.475 59.0233C196.475 61.5487 197.251 63.2 198.608 63.2C202.097 63.2 207.623 57.2749 210.531 50.4756C211.403 48.63 212.857 48.2415 213.826 50.3784Z" fill="#29186B"/>
<path d="M208.45 56.2064C208.45 54.0695 209.031 51.3498 210.388 48.1444C212.327 43.3849 216.01 35.7113 219.888 28.7178C216.883 28.3292 215.138 27.2608 214.363 26.0952C213.005 24.0554 213.975 23.084 216.204 23.1812C218.434 23.2783 221.051 23.1812 223.183 22.9869C226.188 17.7417 228.224 14.5363 230.453 11.331C231.907 9.19402 233.071 9.29115 234.137 11.1367C234.815 12.3023 235.203 13.9535 235.203 15.1191C235.203 16.8675 234.815 19.1016 233.652 21.8213C236.657 22.2099 238.305 23.764 238.984 24.9296C239.953 26.678 239.274 27.8436 236.948 27.5522C235.203 27.3579 232.683 27.5522 230.55 27.8436C226.867 34.1572 221.342 43.7734 217.949 51.1555C216.786 53.7781 216.204 56.3036 216.204 58.4405C216.204 61.3545 217.174 63.3943 218.821 63.3943C222.602 63.3943 227.642 57.2749 231.035 49.9899C232.101 47.6587 234.331 47.4644 235.009 50.087C235.494 52.1268 235.106 53.5838 234.04 55.8179C232.683 58.7319 226.188 67.0853 218.046 67.0853C212.909 67.0853 208.45 62.9086 208.45 56.2064Z" fill="#29186B"/>
<path d="M268.051 49.5042C268.535 51.0584 268.342 53.5838 266.694 56.1093C262.816 62.0344 256.419 65.6283 248.47 68.9308C243.139 81.7524 236.547 97.2937 228.114 100.499C225.885 101.373 223.849 101.373 221.523 98.265C220.069 96.2252 218.615 93.3112 218.615 90.203C218.615 89.0374 218.906 87.3861 219.487 85.6377C222.492 77.2843 230.344 71.3592 239.746 67.571L241.2 64.1713C238.68 66.0169 236.16 66.8911 233.252 66.8911C228.405 66.8911 226.272 63.2 226.272 59.1204C226.272 57.0806 226.66 54.7494 227.533 52.3211C229.762 46.2017 234.512 36.3913 240.522 28.135C241.782 26.4837 243.236 26.3866 244.302 27.9407C245.271 29.3006 246.144 31.049 246.144 32.6031C246.144 35.0314 244.981 37.8483 242.751 41.4422C239.455 46.6874 237.42 50.6698 235.578 55.2351C234.221 58.7319 233.349 62.6172 235.869 62.6172C238.389 62.6172 242.751 56.8863 247.501 48.8243C253.995 37.8483 256.613 31.9232 258.939 28.4264C260.296 26.678 261.556 26.4837 262.622 27.5522C264.076 29.0092 264.464 30.4662 264.464 32.506C264.464 34.4486 263.98 36.5855 262.719 39.0139C259.908 44.4533 254.868 53.8752 250.894 63.1029C256.806 59.5089 261.847 54.5552 264.949 50.1842C266.209 48.4358 267.663 48.2415 268.051 49.5042ZM237.226 73.8846C232.573 77.09 229.277 81.2667 227.242 85.0549C224.818 89.6202 224.14 93.6026 225.109 94.4768C225.788 95.0596 227.823 92.2428 230.538 87.4833C232.573 83.8893 234.9 79.1298 237.226 73.8846Z" fill="#29186B"/>
<path d="M275.902 41.6365C281.04 40.4709 286.759 39.5967 291.993 39.3053C295.289 32.7002 299.36 25.5124 303.528 19.1987C294.029 25.9009 283.366 34.1572 275.902 41.6365ZM315.063 12.3023C316.421 14.6335 316.421 15.2163 314.385 18.4217C310.992 23.5697 306.146 32.0203 301.202 40.8594C303.141 42.1221 304.11 43.8705 304.789 45.8132C304.982 46.6874 304.304 47.173 302.365 46.7845C301.202 46.4931 299.748 46.4931 298.1 46.4931C294.029 53.9724 290.539 61.3545 288.213 66.9882C287.437 68.8337 285.887 68.9308 284.82 67.4739C283.851 65.9197 282.978 64.2685 282.978 62.1315C282.978 60.7717 283.269 58.9261 284.142 56.595C285.111 53.9724 286.08 51.4469 287.922 47.3673C283.657 48.0472 279.392 48.8243 275.708 49.6985C273.867 50.087 272.51 50.087 271.443 48.7272C269.989 46.8816 268.826 44.6476 268.051 43.1906C267.372 41.9279 267.76 40.568 268.632 39.4995C276.581 30.1748 295.192 15.2163 307.309 7.3485C308.957 6.28003 311.186 5.69723 312.446 7.83416L315.063 12.3023Z" fill="#29186B"/>
<path d="M346.546 56.8863C343.735 62.4229 337.434 67.3767 331.424 67.3767C325.705 67.3767 322.797 64.5599 322.409 60.1889C319.113 63.8799 314.751 66.8911 309.808 66.8911C304.864 66.8911 302.926 63.2 302.926 59.0233C302.926 56.8863 303.313 54.6523 304.186 52.3211C306.318 46.2017 311.262 36.4884 317.272 28.0378C318.532 26.3866 320.277 26.5808 321.44 28.0378C322.506 29.3977 322.894 31.049 322.894 32.506C322.894 36.4884 315.818 47.7558 312.425 55.2351C310.68 59.1204 310.389 62.7143 312.522 62.7143C315.042 62.7143 320.18 56.1093 325.123 48.3386C330.842 39.0139 333.363 32.4088 336.852 27.9407C338.209 26.0952 339.76 25.7066 340.923 27.3579C341.893 28.7178 342.377 30.2719 342.377 32.4088C342.377 35.7113 340.342 39.9852 336.949 45.6189C334.138 50.1842 330.358 56.7892 330.358 60.5774C330.358 62.3258 330.939 63.2971 332.199 63.2971C335.398 63.2971 340.342 56.595 343.831 50.4756C344.801 48.8243 346.449 48.5329 347.224 50.3784C347.612 51.2526 348 54.0695 346.546 56.8863Z" fill="#29186B"/>
<path d="M349.87 67.2796C347.544 66.4054 346.671 63.2 347.835 60.7717C349.192 57.7605 352.197 56.2064 354.62 57.0806C356.946 57.8577 357.722 60.6745 356.559 63.4914C355.395 66.4054 352.197 68.1538 349.87 67.2796Z" fill="#29186B"/>
<path d="M379.498 27.8436C380.371 29.3006 380.759 30.8547 380.759 32.4088C380.759 33.0888 380.759 33.7687 380.662 34.3515C384.83 30.4662 389.483 27.2608 392.972 27.2608C395.783 27.2608 398.4 30.6604 398.4 34.3515C398.4 36.4884 396.656 39.5967 393.554 45.0361C390.452 49.9899 387.156 56.4007 387.156 59.9946C387.156 62.0344 387.835 63.2971 389.095 63.2971C392.391 63.2971 397.431 56.9835 400.921 50.4756C401.89 48.63 403.247 48.7272 404.12 50.087C404.895 51.2526 404.992 54.2638 403.635 56.8863C400.921 62.2287 393.845 67.3767 388.029 67.3767C381.534 67.3767 378.723 64.0742 378.723 59.0233C378.723 53.7781 383.182 44.8419 386.962 38.8196C388.998 35.6142 390.549 33.0888 389.87 33.0888C388.998 33.0888 384.248 35.8085 378.917 41.8307C373.585 47.4644 369.223 56.9835 365.249 65.7255C364.571 67.2796 363.311 67.8624 361.76 66.3083C360.403 64.9484 359.627 63.2971 359.627 60.9659C359.627 59.5089 359.918 57.8577 360.499 55.915C362.341 50.4756 369.805 36.8769 375.815 27.8436C377.075 25.998 378.529 26.0952 379.498 27.8436Z" fill="#29186B"/>
<path d="M442 50.9612C442 52.5154 441.612 54.5552 440.158 56.7892C436.475 62.5201 429.786 66.4054 421.838 69.3194C416.7 81.8495 409.624 96.6138 401.773 100.305C399.446 101.179 397.023 100.79 394.987 98.0708C393.63 96.031 392.176 93.5055 392.176 90.4944C392.176 81.7524 401.579 71.7477 413.405 67.6681L414.665 64.4627C412.532 65.9197 410.012 66.8911 407.395 66.8911C401.87 66.8911 398.671 62.9086 398.671 57.0806C398.671 43.1906 415.053 27.1636 424.552 27.1636C427.751 27.1636 429.883 28.912 430.756 31.2432C431.143 30.5633 431.725 29.592 432.307 28.5235C433.47 26.2894 435.215 26.3866 436.475 27.8436C437.347 28.912 438.026 30.7576 438.026 32.7974C438.026 35.4199 436.959 38.0425 434.536 42.8992C431.434 49.0186 427.557 56.1093 424.358 63.4914C430.368 59.8003 435.215 55.7208 438.995 50.4756C440.255 48.8243 442 48.8243 442 50.9612ZM408.558 62.8115C411.66 62.9086 416.216 56.9835 420.965 48.8243C424.746 42.2193 426.491 37.4597 426.491 34.9343C426.491 33.7687 426.2 33.1859 425.521 33.1859C422.226 33.1859 407.298 48.4358 407.298 59.7032C407.298 61.5487 407.686 62.8115 408.558 62.8115ZM410.594 74.0789C406.522 76.9929 403.517 80.4897 401.482 83.8893C398.671 88.6489 397.411 93.2141 398.38 94.0883C399.252 94.7682 401.676 91.8542 404.681 86.6091C406.619 83.2094 408.752 78.9355 410.594 74.0789Z" fill="#29186B"/>
<path d="M29.718 26.678C28.8456 28.135 27.8763 29.8834 22.3511 39.5967C41.6408 35.2257 51.0434 21.0443 49.2986 14.5363C48.9108 13.2736 47.4568 12.5937 46.1967 12.5937C43.9672 12.5937 40.3807 13.8564 37.085 15.022C35.534 15.6048 34.7586 15.8962 33.4015 16.2847C33.3046 18.7131 31.9475 22.5984 29.718 26.678ZM5 60.8688C5 59.5089 5.19387 57.7605 5.67853 56.0121C8.10187 47.6587 16.8259 30.1748 25.1621 16.9647C22.0603 16.2847 20.4124 14.6335 19.54 12.6908C18.8615 11.2338 19.2492 10.3596 21.3817 10.1654C25.0652 9.87396 28.7487 8.61123 32.3352 7.3485C35.8248 6.08576 39.2175 5.21157 42.901 5.0173C48.2323 4.82303 52.982 6.1829 55.3084 13.2736C57.5379 20.0729 55.6962 24.9296 52.3035 30.0776C47.4568 37.654 37.1819 45.6189 25.0652 47.2702C22.1572 47.6587 20.1216 47.4644 18.5707 46.8816C15.9535 51.9326 12.8516 58.1491 9.74974 65.6283C8.97427 67.3767 8.1988 67.3767 6.84173 66.0169C5.77547 64.8513 5 63.2971 5 60.8688Z" stroke="white" strokeWidth="10" mask="url(#path-1-outside-1_1237_10790)"/>
<path d="M61.9037 23.1812C63.9393 23.1812 64.8117 24.3468 64.8117 26.5808C64.8117 28.4264 64.1332 31.2432 63.0669 34.3515C65.3933 33.7687 68.0105 32.4088 70.9185 30.2719C72.5664 29.1063 73.5357 28.912 74.7958 30.1748C76.1529 31.5346 77.6069 34.0601 77.6069 36.3913C77.6069 37.5569 77.1222 38.9167 76.056 40.1795C70.8216 46.2017 65.2964 53.8752 65.2964 59.6061C65.2964 62.1315 66.0718 63.6857 67.4289 63.6857C70.7246 63.6857 74.602 58.2462 77.6069 51.544C78.3824 49.7956 79.7394 49.6985 80.6118 51.4469C81.2904 52.8068 81.3873 55.138 80.321 57.7605C77.9946 63.2971 72.2756 67.4739 66.7504 67.4739C60.8374 67.4739 57.6386 63.2971 57.6386 58.0519C57.6386 51.8354 62.7761 44.3562 67.6228 38.4311C65.1025 39.4995 62.6792 39.8881 60.5466 39.9852C53.2766 52.6125 47.7514 61.5487 46.3943 68.2509C46.0066 69.9993 44.7465 70.8735 43.0017 69.028C41.3538 67.4739 40.5783 65.4341 40.5783 63.2971C40.5783 61.1602 41.2569 58.829 42.6139 56.3036C44.2618 53.1953 49.2054 45.2304 54.5368 38.6253C53.3736 37.5569 52.695 36.2941 52.695 35.0314C52.695 30.0776 58.8988 23.1812 61.9037 23.1812Z" stroke="white" strokeWidth="10" mask="url(#path-1-outside-1_1237_10790)"/>
<path d="M120.168 56.8863C120.168 59.7032 121.041 61.6459 122.592 61.6459C125.306 61.5487 129.959 55.4294 133.545 48.0472C135.775 43.3849 137.035 38.6253 137.035 35.3228C137.035 33.5744 136.841 32.2146 136.162 32.2146C134.321 32.2146 129.571 35.9056 125.306 42.9963L121.913 48.5329C120.847 51.4469 120.168 54.3609 120.168 56.8863ZM101.46 41.2479C102.429 39.0139 102.817 36.6827 102.817 35.4199C102.817 33.9629 102.042 33.3801 101.363 33.3801C100.782 33.3801 99.9092 34.1572 99.9092 35.7113C99.9092 37.4597 100.394 39.9852 101.46 41.2479ZM84.3998 58.0519C84.3998 60.7717 85.1753 61.8401 86.7262 61.8401C89.3434 61.8401 93.3177 58.0519 96.6134 51.9326C97.9705 49.31 99.2306 46.6874 100.103 44.1619C97.3889 42.5107 94.7717 39.5967 93.8993 36.8769C89.1496 41.9279 84.3998 50.4756 84.3998 58.0519ZM152.35 50.767C152.738 52.8068 152.544 54.8466 150.993 57.4691C147.213 63.7828 139.458 67.7653 132.285 67.7653C124.433 67.7653 118.327 65.8226 115.515 60.1889C110.863 68.8337 106.113 78.547 101.945 87.8718C101.169 89.7173 99.8122 90.203 98.5521 88.2603C97.8736 87.1919 97.195 85.7349 97.195 83.6951C97.195 82.0438 97.5828 79.9069 98.2613 77.3814C100.006 71.8448 107.179 57.2749 113.771 45.2304C112.026 46.0075 110.281 46.2988 108.148 46.2017C105.628 55.8179 97.8736 66.9882 88.8587 66.9882C85.66 66.9882 82.2673 65.7255 79.4562 62.1315C77.6145 59.7032 76.839 56.7892 76.839 53.7781C76.839 49.4071 78.293 44.6476 80.9102 40.0823C85.2722 32.4088 91.2821 27.455 97.7766 27.455C100.588 27.455 102.332 28.4264 104.174 30.9518C107.373 34.74 109.506 36.0999 108.827 42.6078C113.965 41.6365 119.199 35.2257 123.852 28.2321C125.306 25.998 127.051 26.3866 127.923 28.5235C128.214 29.3006 128.505 30.2719 128.698 31.2432C131.122 29.3006 133.836 27.9407 136.744 27.9407C138.779 27.9407 140.815 28.7178 142.269 30.4662C144.305 32.6031 145.08 35.2257 145.08 38.1397C145.08 42.3164 143.432 47.4644 141.3 51.9326C138.973 56.4978 135.871 61.3545 133.06 63.6857C139.846 62.1315 146.437 55.7208 148.957 50.3784C149.927 48.3386 151.962 48.8243 152.35 50.767Z" stroke="white" strokeWidth="10" mask="url(#path-1-outside-1_1237_10790)"/>
<path d="M159.738 44.6476C159.253 45.5218 159.059 45.9103 158.865 46.396C159.641 46.7845 160.319 46.9788 160.998 46.9788C163.518 46.9788 166.135 44.1619 168.074 41.5393C170.788 38.0425 173.017 33.283 172.048 32.506C170.303 31.1461 163.712 36.7798 159.738 44.6476ZM213.826 50.3784C214.311 51.4469 214.602 54.1666 213.342 56.8863C210.918 62.9086 203.745 67.0853 198.026 67.0853C191.919 67.0853 188.527 62.8115 188.527 57.0806C188.527 55.5265 188.818 53.7781 189.496 51.7383C191.144 46.4931 194.924 41.1508 198.802 36.5855C196.184 37.7511 193.761 38.1397 191.629 38.2368C183.68 54.8466 173.308 66.6968 161.482 66.8911C152.564 66.9882 147.621 61.1602 147.621 53.4867C147.621 50.087 148.59 46.2017 150.529 42.3164C155.569 32.4088 163.518 26.9694 169.043 26.9694C170.303 26.9694 171.37 27.1636 172.339 27.7464C174.956 29.3977 176.798 30.8547 178.349 32.7974C178.833 33.6715 179.221 34.8371 179.221 36.0027C179.221 38.8196 177.767 42.8021 175.15 46.2017C172.339 49.6985 168.655 52.1268 164.39 52.1268C162.064 52.1268 159.738 51.544 157.508 49.9899C156.926 51.9326 156.636 53.9724 156.636 55.7208C156.636 60.1889 158.38 63.1029 161.095 63.1029C170.788 63.1029 180.869 49.1157 186.006 37.2655C184.262 36.197 183.292 34.74 183.292 32.9916C183.292 27.8436 189.787 20.7529 193.083 20.6557C195.118 20.6557 195.894 21.9185 195.894 24.0554C195.894 26.0952 195.118 29.0092 194.052 32.2146C196.766 31.5346 199.286 30.1748 202.485 28.135C204.036 27.1636 205.393 26.4837 206.556 28.0378C207.816 29.6891 209.464 32.3117 209.464 34.74C209.464 35.9056 208.98 37.1683 207.816 38.4311C203.648 43.2877 198.899 49.8928 197.154 54.8466C196.766 56.1093 196.475 57.8577 196.475 59.0233C196.475 61.5487 197.251 63.2 198.608 63.2C202.097 63.2 207.623 57.2749 210.531 50.4756C211.403 48.63 212.857 48.2415 213.826 50.3784Z" stroke="white" strokeWidth="10" mask="url(#path-1-outside-1_1237_10790)"/>
<path d="M208.45 56.2064C208.45 54.0695 209.031 51.3498 210.388 48.1444C212.327 43.3849 216.01 35.7113 219.888 28.7178C216.883 28.3292 215.138 27.2608 214.363 26.0952C213.005 24.0554 213.975 23.084 216.204 23.1812C218.434 23.2783 221.051 23.1812 223.183 22.9869C226.188 17.7417 228.224 14.5363 230.453 11.331C231.907 9.19402 233.071 9.29115 234.137 11.1367C234.815 12.3023 235.203 13.9535 235.203 15.1191C235.203 16.8675 234.815 19.1016 233.652 21.8213C236.657 22.2099 238.305 23.764 238.984 24.9296C239.953 26.678 239.274 27.8436 236.948 27.5522C235.203 27.3579 232.683 27.5522 230.55 27.8436C226.867 34.1572 221.342 43.7734 217.949 51.1555C216.786 53.7781 216.204 56.3036 216.204 58.4405C216.204 61.3545 217.174 63.3943 218.821 63.3943C222.602 63.3943 227.642 57.2749 231.035 49.9899C232.101 47.6587 234.331 47.4644 235.009 50.087C235.494 52.1268 235.106 53.5838 234.04 55.8179C232.683 58.7319 226.188 67.0853 218.046 67.0853C212.909 67.0853 208.45 62.9086 208.45 56.2064Z" stroke="white" strokeWidth="10" mask="url(#path-1-outside-1_1237_10790)"/>
<path d="M268.051 49.5042C268.535 51.0584 268.342 53.5838 266.694 56.1093C262.816 62.0344 256.419 65.6283 248.47 68.9308C243.139 81.7524 236.547 97.2937 228.114 100.499C225.885 101.373 223.849 101.373 221.523 98.265C220.069 96.2252 218.615 93.3112 218.615 90.203C218.615 89.0374 218.906 87.3861 219.487 85.6377C222.492 77.2843 230.344 71.3592 239.746 67.571L241.2 64.1713C238.68 66.0169 236.16 66.8911 233.252 66.8911C228.405 66.8911 226.272 63.2 226.272 59.1204C226.272 57.0806 226.66 54.7494 227.533 52.3211C229.762 46.2017 234.512 36.3913 240.522 28.135C241.782 26.4837 243.236 26.3866 244.302 27.9407C245.271 29.3006 246.144 31.049 246.144 32.6031C246.144 35.0314 244.981 37.8483 242.751 41.4422C239.455 46.6874 237.42 50.6698 235.578 55.2351C234.221 58.7319 233.349 62.6172 235.869 62.6172C238.389 62.6172 242.751 56.8863 247.501 48.8243C253.995 37.8483 256.613 31.9232 258.939 28.4264C260.296 26.678 261.556 26.4837 262.622 27.5522C264.076 29.0092 264.464 30.4662 264.464 32.506C264.464 34.4486 263.98 36.5855 262.719 39.0139C259.908 44.4533 254.868 53.8752 250.894 63.1029C256.806 59.5089 261.847 54.5552 264.949 50.1842C266.209 48.4358 267.663 48.2415 268.051 49.5042ZM237.226 73.8846C232.573 77.09 229.277 81.2667 227.242 85.0549C224.818 89.6202 224.14 93.6026 225.109 94.4768C225.788 95.0596 227.823 92.2428 230.538 87.4833C232.573 83.8893 234.9 79.1298 237.226 73.8846Z" stroke="white" strokeWidth="10" mask="url(#path-1-outside-1_1237_10790)"/>
<path d="M275.902 41.6365C281.04 40.4709 286.759 39.5967 291.993 39.3053C295.289 32.7002 299.36 25.5124 303.528 19.1987C294.029 25.9009 283.366 34.1572 275.902 41.6365ZM315.063 12.3023C316.421 14.6335 316.421 15.2163 314.385 18.4217C310.992 23.5697 306.146 32.0203 301.202 40.8594C303.141 42.1221 304.11 43.8705 304.789 45.8132C304.982 46.6874 304.304 47.173 302.365 46.7845C301.202 46.4931 299.748 46.4931 298.1 46.4931C294.029 53.9724 290.539 61.3545 288.213 66.9882C287.437 68.8337 285.887 68.9308 284.82 67.4739C283.851 65.9197 282.978 64.2685 282.978 62.1315C282.978 60.7717 283.269 58.9261 284.142 56.595C285.111 53.9724 286.08 51.4469 287.922 47.3673C283.657 48.0472 279.392 48.8243 275.708 49.6985C273.867 50.087 272.51 50.087 271.443 48.7272C269.989 46.8816 268.826 44.6476 268.051 43.1906C267.372 41.9279 267.76 40.568 268.632 39.4995C276.581 30.1748 295.192 15.2163 307.309 7.3485C308.957 6.28003 311.186 5.69723 312.446 7.83416L315.063 12.3023Z" stroke="white" strokeWidth="10" mask="url(#path-1-outside-1_1237_10790)"/>
<path d="M346.546 56.8863C343.735 62.4229 337.434 67.3767 331.424 67.3767C325.705 67.3767 322.797 64.5599 322.409 60.1889C319.113 63.8799 314.751 66.8911 309.808 66.8911C304.864 66.8911 302.926 63.2 302.926 59.0233C302.926 56.8863 303.313 54.6523 304.186 52.3211C306.318 46.2017 311.262 36.4884 317.272 28.0378C318.532 26.3866 320.277 26.5808 321.44 28.0378C322.506 29.3977 322.894 31.049 322.894 32.506C322.894 36.4884 315.818 47.7558 312.425 55.2351C310.68 59.1204 310.389 62.7143 312.522 62.7143C315.042 62.7143 320.18 56.1093 325.123 48.3386C330.842 39.0139 333.363 32.4088 336.852 27.9407C338.209 26.0952 339.76 25.7066 340.923 27.3579C341.893 28.7178 342.377 30.2719 342.377 32.4088C342.377 35.7113 340.342 39.9852 336.949 45.6189C334.138 50.1842 330.358 56.7892 330.358 60.5774C330.358 62.3258 330.939 63.2971 332.199 63.2971C335.398 63.2971 340.342 56.595 343.831 50.4756C344.801 48.8243 346.449 48.5329 347.224 50.3784C347.612 51.2526 348 54.0695 346.546 56.8863Z" stroke="white" strokeWidth="10" mask="url(#path-1-outside-1_1237_10790)"/>
<path d="M349.87 67.2796C347.544 66.4054 346.671 63.2 347.835 60.7717C349.192 57.7605 352.197 56.2064 354.62 57.0806C356.946 57.8577 357.722 60.6745 356.559 63.4914C355.395 66.4054 352.197 68.1538 349.87 67.2796Z" stroke="white" strokeWidth="10" mask="url(#path-1-outside-1_1237_10790)"/>
<path d="M379.498 27.8436C380.371 29.3006 380.759 30.8547 380.759 32.4088C380.759 33.0888 380.759 33.7687 380.662 34.3515C384.83 30.4662 389.483 27.2608 392.972 27.2608C395.783 27.2608 398.4 30.6604 398.4 34.3515C398.4 36.4884 396.656 39.5967 393.554 45.0361C390.452 49.9899 387.156 56.4007 387.156 59.9946C387.156 62.0344 387.835 63.2971 389.095 63.2971C392.391 63.2971 397.431 56.9835 400.921 50.4756C401.89 48.63 403.247 48.7272 404.12 50.087C404.895 51.2526 404.992 54.2638 403.635 56.8863C400.921 62.2287 393.845 67.3767 388.029 67.3767C381.534 67.3767 378.723 64.0742 378.723 59.0233C378.723 53.7781 383.182 44.8419 386.962 38.8196C388.998 35.6142 390.549 33.0888 389.87 33.0888C388.998 33.0888 384.248 35.8085 378.917 41.8307C373.585 47.4644 369.223 56.9835 365.249 65.7255C364.571 67.2796 363.311 67.8624 361.76 66.3083C360.403 64.9484 359.627 63.2971 359.627 60.9659C359.627 59.5089 359.918 57.8577 360.499 55.915C362.341 50.4756 369.805 36.8769 375.815 27.8436C377.075 25.998 378.529 26.0952 379.498 27.8436Z" stroke="white" strokeWidth="10" mask="url(#path-1-outside-1_1237_10790)"/>
<path d="M442 50.9612C442 52.5154 441.612 54.5552 440.158 56.7892C436.475 62.5201 429.786 66.4054 421.838 69.3194C416.7 81.8495 409.624 96.6138 401.773 100.305C399.446 101.179 397.023 100.79 394.987 98.0708C393.63 96.031 392.176 93.5055 392.176 90.4944C392.176 81.7524 401.579 71.7477 413.405 67.6681L414.665 64.4627C412.532 65.9197 410.012 66.8911 407.395 66.8911C401.87 66.8911 398.671 62.9086 398.671 57.0806C398.671 43.1906 415.053 27.1636 424.552 27.1636C427.751 27.1636 429.883 28.912 430.756 31.2432C431.143 30.5633 431.725 29.592 432.307 28.5235C433.47 26.2894 435.215 26.3866 436.475 27.8436C437.347 28.912 438.026 30.7576 438.026 32.7974C438.026 35.4199 436.959 38.0425 434.536 42.8992C431.434 49.0186 427.557 56.1093 424.358 63.4914C430.368 59.8003 435.215 55.7208 438.995 50.4756C440.255 48.8243 442 48.8243 442 50.9612ZM408.558 62.8115C411.66 62.9086 416.216 56.9835 420.965 48.8243C424.746 42.2193 426.491 37.4597 426.491 34.9343C426.491 33.7687 426.2 33.1859 425.521 33.1859C422.226 33.1859 407.298 48.4358 407.298 59.7032C407.298 61.5487 407.686 62.8115 408.558 62.8115ZM410.594 74.0789C406.522 76.9929 403.517 80.4897 401.482 83.8893C398.671 88.6489 397.411 93.2141 398.38 94.0883C399.252 94.7682 401.676 91.8542 404.681 86.6091C406.619 83.2094 408.752 78.9355 410.594 74.0789Z" stroke="white" strokeWidth="10" mask="url(#path-1-outside-1_1237_10790)"/>
</g>
</svg>
